<svg width="654" height="604" viewBox="0 0 654 604" fill="none" xmlns="http://www.w3.org/2000/svg">
<g clip-path="url(#clip0)">
<path d="M115.743 133.017C160.7 95.3816 109.113 61.6336 134.554 27.1645C158.694 -5.54897 225.611 -0.141133 260.379 1.08151C302.107 2.55495 499.113 -0.736777 522.72 22.1642C543.898 42.6983 547.127 77.2614 542.267 100.272C535.245 133.55 568.241 133.55 585.766 155.714C623.873 203.899 572.85 259.012 584.653 300.064C600.109 353.892 650.082 386.558 606.332 438.003C582.882 465.56 557.002 474.181 520.291 479.15C458.123 487.567 388.885 485.576 325.823 485.717C265.85 485.843 200.17 478.491 141.937 465.027C102.514 455.904 26.2221 449.446 34.9689 391.558C40.2044 356.87 90.6004 281.474 63.5605 228.853C47.3053 197.206 78.358 164.32 115.743 133.017Z" fill="#E6F3F9"/>
<path d="M560.654 129.521C505.352 110.069 552.472 61.6335 527.031 27.1644C502.891 -5.54903 435.989 -0.125519 401.221 1.08145C359.494 2.55489 315.948 3.38565 274.691 9.57723C243.967 14.1856 189.856 16.6623 166.249 39.5633C145.072 60.0974 155.998 75.1766 160.637 98.2187C170.105 145.29 97.4975 165.918 68.5923 192.033C29.6393 227.239 74.5646 257.131 62.7611 298.183C47.3053 352.011 11.503 386.527 55.2683 437.972C78.7185 465.528 104.598 474.149 141.31 479.118C203.478 487.536 272.716 485.545 335.777 485.686C395.751 485.811 461.43 478.46 519.664 464.995C559.087 455.872 635.378 449.414 626.632 391.527C621.396 356.839 589.763 339.204 573.304 312.588C554.055 281.458 572.458 248.603 584.92 219.48C598.902 186.782 590.406 140.259 560.654 129.521Z" fill="url(#paint0_linear)"/>
<path d="M41.0509 276.285C56.6007 273.323 67.8242 285 68.5609 285.737C69.2507 283.339 76.0224 261.3 98.0148 253.494C111.919 248.541 124.161 252.067 128.378 253.494C125.588 245.97 127.061 237.6 132.187 231.612C137.72 225.169 146.655 222.552 154.979 224.997C164.384 210.466 181.642 202.942 198.619 205.968C215.375 208.993 228.809 221.69 232.806 238.274C237.885 230.703 246.992 226.878 255.598 228.759C263.295 230.405 269.439 236.283 271.775 243.964C282.262 233.023 298.157 228.916 312.562 233.54C325.4 237.584 335.213 247.929 338.818 260.767C349.132 252.616 363.021 249.544 375.937 253.604C395.249 259.685 407.413 280.188 403.212 300.926C382.05 300.926 360.889 300.926 339.743 300.926L313.361 339.298H17.3028C19.6385 288.355 29.216 278.495 41.0509 276.285Z" fill="url(#paint1_linear)"/>
<path d="M259.454 281.583C275.004 278.621 286.228 290.299 286.964 291.035C287.654 288.637 294.426 266.598 316.418 258.792C330.322 253.839 342.565 257.366 346.781 258.792C343.991 251.268 345.464 242.898 350.59 236.91C356.124 230.467 365.059 227.85 373.382 230.295C382.787 215.764 400.046 208.241 417.022 211.266C433.779 214.291 447.213 226.988 451.21 243.572C456.289 236.001 465.396 232.176 474.002 234.057C481.698 235.703 487.843 241.581 490.178 249.262C500.665 238.321 516.56 234.214 530.965 238.838C543.804 242.882 553.616 253.227 557.222 266.065C567.536 257.914 581.424 254.842 594.341 258.902C613.652 264.984 625.816 285.486 621.616 306.224C600.454 306.224 579.292 306.224 558.146 306.224H531.765H235.691C238.026 293.669 247.604 283.809 259.454 281.583Z" fill="url(#paint2_linear)"/>
<path d="M577.38 241.942C577.38 241.942 605.705 211.799 597.209 204.243C591.331 199.008 578.744 216.344 578.681 216.313C578.681 216.313 587.02 182.988 571.643 184.148C559.965 185.669 560.607 214.087 560.513 214.103C560.513 214.103 552.974 197.707 545.606 202.425C534.931 209.275 551.861 236.016 551.861 236.016C551.861 236.016 539.822 221.157 533.552 228.9C525.322 239.057 541.186 262.444 541.186 262.444C541.186 262.444 518.425 252.632 520.933 268.416C522.783 280.063 529.288 291.584 538.458 299.249C550.513 305.331 584.826 293.966 583.29 279.154C582.349 270.047 566.282 273.432 566.282 273.432C577.678 269.012 601.927 256.598 598.353 241.91C595.798 231.377 577.38 241.957 577.38 241.942Z" fill="url(#paint3_linear)"/>
<path d="M560.169 287.069C557.551 287.728 554.917 288.135 552.347 288.339C550.356 288.512 548.381 288.48 546.437 288.323C551.046 279.53 555.058 270.423 558.444 261.096C561.125 260.845 563.821 260.422 566.47 259.717C569.37 258.933 572.348 257.82 575.217 256.456C578.07 255.077 580.891 253.4 583.587 251.425C586.284 249.45 588.901 247.224 591.3 244.622C588.839 247.13 586.189 249.246 583.462 251.08C580.734 252.93 577.913 254.481 575.06 255.735C572.207 256.974 569.26 257.946 566.392 258.62C563.931 259.184 561.423 259.497 558.962 259.654C561.564 252.444 563.79 244.92 565.529 237.443C568.194 236.157 570.828 234.715 573.289 232.866C574.605 231.972 575.844 230.875 577.098 229.856C578.305 228.728 579.527 227.615 580.672 226.408C582.945 223.994 585.155 221.329 587.13 218.445C589.105 215.561 590.908 212.473 592.428 209.15C590.829 212.41 588.948 215.404 586.911 218.178C584.873 220.969 582.6 223.524 580.311 225.812C579.151 226.972 577.913 228.022 576.69 229.072C575.421 230.029 574.198 231.063 572.881 231.894C570.655 233.461 568.304 234.668 565.937 235.75C569.041 221.031 570.875 206.532 571.502 191.5C570.467 206.485 568.257 220.906 564.746 235.515C563.115 233.618 561.548 231.643 560.09 229.558C558.429 227.16 556.798 224.699 555.294 222.191C553.789 219.683 552.315 217.128 550.904 214.558C549.509 211.987 548.146 209.4 546.876 206.783C548.052 209.447 549.321 212.097 550.622 214.73C551.939 217.363 553.334 219.981 554.745 222.583C556.171 225.185 557.708 227.74 559.306 230.248C560.827 232.646 562.52 234.935 564.275 237.145C562.332 244.559 559.886 252.02 557.081 259.168C555.152 257.789 553.303 256.206 551.657 254.434C549.76 252.381 547.973 250.092 546.359 247.757C544.728 245.406 543.208 242.96 541.766 240.484C540.339 238.007 538.96 235.483 537.722 232.928C538.866 235.546 540.151 238.117 541.499 240.672C542.847 243.227 544.29 245.751 545.841 248.196C547.393 250.641 549.102 253.039 550.952 255.234C552.613 257.193 554.51 258.996 556.548 260.563C552.958 269.67 548.741 278.542 543.96 287.085C542.534 285.392 541.17 283.637 539.885 281.803C538.286 279.499 536.734 277.147 535.292 274.733C533.85 272.319 532.423 269.874 531.091 267.413C529.743 264.952 528.442 262.476 527.219 259.952C528.348 262.507 529.57 265.046 530.825 267.586C532.079 270.109 533.411 272.633 534.759 275.125C536.107 277.618 537.581 280.079 539.085 282.477C540.371 284.515 541.766 286.474 543.224 288.371C537.596 298.387 530.997 307.886 523.865 316.883C525.04 317.792 525.636 318.247 526.827 319.156C533.834 309.829 540.261 300.001 545.7 289.672C547.848 289.781 550.042 289.734 552.221 289.452C554.855 289.123 557.519 288.59 560.169 287.806C562.802 287.022 565.451 286.082 568.053 284.938C570.655 283.793 573.242 282.477 575.765 280.925C573.21 282.351 570.608 283.558 568.006 284.577C565.42 285.596 562.771 286.411 560.169 287.069Z" fill="#6943D8"/>
<path d="M73.1381 286.348C73.1381 286.348 58.9834 263.745 65.3005 260.03C69.6739 257.46 75.4737 269.984 75.5051 269.984C75.5051 269.984 74.3921 247.867 83.9697 250.516C91.1647 252.945 87.2145 270.83 87.2615 270.846C87.2615 270.846 94.0803 261.41 98.1558 265.328C104.05 270.987 90.0047 285.8 90.0047 285.8C90.0047 285.8 99.4726 277.9 102.482 283.574C106.417 291.02 93.4533 303.842 93.4533 303.842C93.4533 303.842 109.081 300.472 105.508 310.159C102.89 317.291 97.3407 323.764 90.569 327.479C82.1828 329.815 61.899 318.357 64.7205 309.171C66.4605 303.528 76.1948 307.682 76.1948 307.682C69.5485 303.465 55.7543 292.587 59.8455 283.731C62.7925 277.367 73.1224 286.364 73.1381 286.348Z" fill="url(#paint4_linear)"/>
<path d="M78.3893 317.04C79.9569 317.777 81.5714 318.372 83.186 318.827C84.4243 319.187 85.6783 319.407 86.9167 319.548C85.0983 313.403 83.6876 307.149 82.7157 300.816C81.0541 300.33 79.3925 299.719 77.8093 298.935C76.0694 298.073 74.3294 297.007 72.6835 295.785C71.0533 294.562 69.4701 293.136 68.0123 291.552C66.5545 289.969 65.1751 288.229 63.9838 286.286C65.2221 288.182 66.6329 289.844 68.1377 291.349C69.6269 292.853 71.2257 294.202 72.8716 295.346C74.5175 296.49 76.2732 297.478 77.9975 298.246C79.4866 298.92 81.0228 299.421 82.5746 299.829C81.8222 294.938 81.3676 289.907 81.1952 284.969C79.6747 283.825 78.1856 282.586 76.8532 281.113C76.1321 280.376 75.4894 279.546 74.8154 278.73C74.1884 277.868 73.5614 277.006 72.9814 276.097C71.8527 274.294 70.7712 272.319 69.8933 270.25C68.9998 268.181 68.2474 266.002 67.6988 263.714C68.3101 265.971 69.1253 268.103 70.0658 270.125C71.0063 272.147 72.1192 274.044 73.2949 275.784C73.8749 276.661 74.5332 277.476 75.1759 278.307C75.8499 279.075 76.5083 279.875 77.2294 280.564C78.452 281.834 79.7844 282.884 81.1482 283.872C81.0228 274.169 81.6811 264.78 83.1546 255.187C81.9319 264.795 81.5401 274.2 81.9319 283.872C83.2016 282.869 84.44 281.834 85.6156 280.69C86.9637 279.373 88.3118 278.025 89.5658 276.63C90.8355 275.235 92.0895 273.809 93.2965 272.351C94.5035 270.909 95.6792 269.435 96.8078 267.93C95.7419 269.482 94.5976 270.987 93.4376 272.492C92.2776 273.997 91.0706 275.486 89.8479 276.943C88.6253 278.417 87.3242 279.828 86.0075 281.223C84.7378 282.555 83.3897 283.778 81.9946 284.969C82.3081 289.907 82.9038 294.923 83.7973 299.797C85.1924 299.17 86.5561 298.387 87.8102 297.478C89.268 296.412 90.6787 295.189 91.9955 293.919C93.3122 292.634 94.5819 291.27 95.8046 289.891C97.0272 288.496 98.2029 287.085 99.3001 285.612C98.2499 287.132 97.1213 288.59 95.9456 290.032C94.77 291.474 93.5473 292.901 92.2619 294.249C90.9766 295.597 89.5971 296.898 88.155 298.058C86.8697 299.092 85.4432 299.986 83.9541 300.738C85.0827 306.945 86.6502 313.09 88.6096 319.093C89.7226 318.2 90.8041 317.259 91.8387 316.256C93.1398 315.002 94.4095 313.701 95.6321 312.353C96.8391 311.005 98.0461 309.641 99.2061 308.246C100.366 306.851 101.51 305.456 102.592 304.014C101.557 305.487 100.476 306.945 99.3628 308.387C98.2499 309.829 97.1056 311.256 95.93 312.667C94.7543 314.077 93.5316 315.441 92.2619 316.773C91.196 317.902 90.0674 318.968 88.9074 319.987C91.2117 327.025 94.2057 333.859 97.5915 340.442C96.7294 340.866 96.3062 341.085 95.444 341.508C92.1836 334.737 89.3463 327.714 87.1832 320.504C85.8037 320.3 84.44 320.002 83.0919 319.548C81.4617 318.999 79.8471 318.341 78.2796 317.51C76.7121 316.695 75.1602 315.755 73.6554 314.704C72.1506 313.654 70.6771 312.494 69.282 311.193C70.7241 312.416 72.2133 313.497 73.7338 314.469C75.2543 315.457 76.8218 316.303 78.3893 317.04Z" fill="#6943D8"/>
<path d="M102.341 240.86C102.341 240.86 80.3801 205.811 90.1928 200.043C96.9802 196.046 105.962 215.498 106.025 215.482C106.025 215.482 104.301 181.17 119.161 185.293C130.321 189.055 124.177 216.799 124.271 216.83C124.271 216.83 134.836 202.206 141.153 208.272C150.292 217.05 128.503 240.014 128.503 240.014C128.503 240.014 143.191 227.771 147.846 236.565C153.96 248.117 133.848 267.993 133.848 267.993C133.848 267.993 158.082 262.773 152.549 277.774C148.473 288.841 139.868 298.888 129.381 304.625C116.37 308.246 84.9102 290.471 89.2836 276.238C91.9798 267.492 107.075 273.918 107.075 273.918C96.7607 267.382 75.364 250.5 81.7125 236.785C86.3053 226.925 102.341 240.876 102.341 240.86Z" fill="url(#paint5_linear)"/>
<path d="M110.492 288.465C112.938 289.609 115.43 290.518 117.922 291.239C119.85 291.788 121.794 292.148 123.722 292.368C120.901 282.853 118.722 273.134 117.217 263.322C114.646 262.554 112.06 261.629 109.614 260.406C106.918 259.074 104.206 257.413 101.667 255.516C99.1277 253.619 96.698 251.409 94.4251 248.964C92.1522 246.503 90.0204 243.807 88.1707 240.797C90.0988 243.728 92.2933 246.315 94.5976 248.65C96.9175 250.986 99.3785 253.071 101.934 254.842C104.489 256.613 107.2 258.134 109.881 259.341C112.185 260.375 114.584 261.175 116.982 261.802C115.822 254.215 115.101 246.409 114.834 238.744C112.467 236.973 110.163 235.045 108.11 232.756C106.997 231.627 105.993 230.311 104.959 229.057C103.987 227.724 103 226.392 102.122 224.981C100.366 222.175 98.7045 219.135 97.3251 215.921C95.9456 212.708 94.77 209.322 93.9392 205.78C94.8797 209.275 96.1494 212.582 97.6072 215.717C99.065 218.837 100.789 221.784 102.608 224.48C103.517 225.843 104.536 227.113 105.523 228.383C106.573 229.574 107.592 230.812 108.721 231.878C110.602 233.838 112.671 235.483 114.787 237.004C114.584 221.956 115.602 207.394 117.907 192.519C116.026 207.425 115.399 222.003 116.01 237.004C117.969 235.452 119.897 233.838 121.731 232.066C123.832 230.029 125.901 227.944 127.86 225.765C129.82 223.586 131.764 221.376 133.645 219.135C135.51 216.893 137.344 214.62 139.1 212.285C137.438 214.683 135.682 217.034 133.88 219.354C132.077 221.69 130.212 223.994 128.315 226.267C126.418 228.539 124.412 230.75 122.343 232.897C120.383 234.95 118.283 236.863 116.12 238.712C116.59 246.362 117.546 254.152 118.91 261.707C121.073 260.736 123.189 259.529 125.149 258.102C127.406 256.456 129.6 254.56 131.638 252.569C133.692 250.578 135.667 248.478 137.548 246.315C139.429 244.167 141.263 241.957 142.971 239.684C141.341 242.036 139.586 244.308 137.767 246.55C135.949 248.791 134.052 251.002 132.061 253.086C130.071 255.187 127.923 257.209 125.682 258.996C123.675 260.595 121.465 261.99 119.161 263.15C120.916 272.79 123.33 282.304 126.371 291.615C128.096 290.236 129.773 288.778 131.387 287.226C133.394 285.283 135.369 283.26 137.266 281.176C139.147 279.091 141.012 276.975 142.815 274.812C144.617 272.649 146.373 270.47 148.066 268.244C146.467 270.532 144.774 272.79 143.05 275.031C141.326 277.273 139.539 279.483 137.736 281.662C135.918 283.84 134.005 285.972 132.061 288.041C130.416 289.797 128.66 291.443 126.857 293.026C130.447 303.951 135.071 314.548 140.338 324.752C139.006 325.41 138.332 325.755 136.999 326.413C131.936 315.911 127.531 305.017 124.192 293.825C122.061 293.512 119.929 293.042 117.844 292.352C115.32 291.505 112.812 290.471 110.367 289.201C107.937 287.932 105.523 286.489 103.188 284.859C100.852 283.229 98.5791 281.442 96.4002 279.42C98.6261 281.317 100.946 282.994 103.313 284.499C105.617 286.004 108.047 287.32 110.492 288.465Z" fill="#6943D8"/>
<path d="M43.8097 310.159C66.8367 305.77 83.4368 323.059 84.534 324.156C85.5529 320.614 95.5851 287.979 128.127 276.426C148.709 269.09 166.829 274.326 173.068 276.426C168.93 265.297 171.124 252.898 178.711 244.042C186.893 234.512 200.123 230.64 212.444 234.261C226.364 212.755 251.914 201.626 277.042 206.093C301.84 210.56 321.732 229.37 327.642 253.901C335.15 242.678 348.646 237.035 361.375 239.825C372.755 242.271 381.862 250.955 385.327 262.334C400.845 246.142 424.374 240.076 445.708 246.91C464.706 252.883 479.237 268.213 484.567 287.226C499.834 275.157 520.4 270.611 539.508 276.614C568.1 285.612 586.111 315.958 579.872 346.665C548.553 346.665 517.234 346.665 485.915 346.665H446.868H8.6501C12.0987 328.028 26.2691 313.45 43.8097 310.159Z" fill="url(#paint6_linear)"/>
<path d="M623.261 276.395C623.261 276.395 662.543 235.139 650.912 224.668C642.855 217.41 625.377 241.174 625.299 241.127C625.299 241.127 637.087 195.309 615.91 196.782C599.811 198.789 600.454 237.913 600.313 237.929C600.313 237.929 590.077 215.279 579.888 221.721C565.137 231.048 588.196 268.04 588.196 268.04C588.196 268.04 571.752 247.475 563.053 258.071C551.625 271.975 573.273 304.328 573.273 304.328C573.273 304.328 542.016 290.596 545.34 312.385C547.785 328.436 556.626 344.361 569.197 354.989C585.75 363.469 633.09 348.139 631.115 327.73C629.892 315.175 607.758 319.705 607.758 319.705C623.481 313.733 656.994 296.851 652.198 276.583C648.734 262.021 623.277 276.411 623.261 276.395Z" fill="url(#paint7_linear)"/>
<path d="M599.168 338.374C595.563 339.251 591.942 339.784 588.384 340.066C585.641 340.286 582.913 340.223 580.248 339.988C586.675 327.918 592.287 315.426 597.021 302.588C600.705 302.274 604.435 301.71 608.088 300.754C612.101 299.704 616.207 298.199 620.158 296.334C624.108 294.468 627.995 292.164 631.742 289.484C635.472 286.803 639.093 283.747 642.416 280.173C639.015 283.606 635.331 286.49 631.569 288.998C627.807 291.521 623.904 293.637 619.969 295.33C616.035 297.023 611.959 298.324 608.009 299.218C604.623 299.986 601.159 300.393 597.758 300.581C601.41 290.675 604.545 280.329 607.006 270.062C610.69 268.323 614.326 266.363 617.728 263.84C619.546 262.617 621.255 261.128 622.995 259.717C624.672 258.181 626.365 256.66 627.948 254.983C631.099 251.676 634.171 248.024 636.914 244.074C639.658 240.123 642.181 235.891 644.282 231.33C642.056 235.797 639.422 239.904 636.601 243.729C633.779 247.553 630.629 251.033 627.431 254.184C625.832 255.767 624.108 257.209 622.43 258.651C620.675 259.968 618.966 261.363 617.148 262.492C614.06 264.623 610.815 266.269 607.539 267.727C611.959 247.491 614.593 227.552 615.596 206.846C614.029 227.474 610.862 247.318 605.893 267.398C603.667 264.764 601.52 262.053 599.545 259.168C597.272 255.845 595.061 252.444 593.008 248.98C590.955 245.5 588.948 241.989 587.036 238.431C585.139 234.888 583.274 231.314 581.565 227.693C583.148 231.377 584.873 235.029 586.66 238.666C588.447 242.302 590.343 245.923 592.271 249.513C594.215 253.102 596.315 256.629 598.494 260.109C600.579 263.432 602.883 266.583 605.282 269.655C602.539 279.859 599.106 290.111 595.187 299.907C592.538 297.995 589.998 295.785 587.772 293.324C585.186 290.487 582.741 287.32 580.531 284.076C578.32 280.831 576.236 277.445 574.276 274.013C572.332 270.595 570.451 267.116 568.774 263.557C570.326 267.178 572.066 270.736 573.9 274.248C575.734 277.775 577.693 281.27 579.809 284.656C581.91 288.026 584.261 291.349 586.785 294.39C589.042 297.102 591.644 299.594 594.434 301.788C589.403 314.297 583.54 326.476 576.863 338.201C574.919 335.85 573.053 333.436 571.313 330.897C569.135 327.715 567.018 324.454 565.059 321.131C563.1 317.808 561.156 314.422 559.338 311.021C557.504 307.619 555.717 304.187 554.071 300.723C555.607 304.265 557.253 307.761 558.961 311.256C560.67 314.752 562.473 318.231 564.307 321.68C566.156 325.128 568.147 328.514 570.216 331.853C571.956 334.674 573.869 337.37 575.859 340.004C568.022 353.751 558.852 366.776 548.945 379.097C550.559 380.367 551.375 380.994 552.989 382.263C562.723 369.473 571.658 356.008 579.245 341.822C582.208 341.979 585.217 341.947 588.227 341.587C591.864 341.148 595.532 340.443 599.168 339.392C602.805 338.342 606.457 337.057 610.047 335.505C613.637 333.953 617.211 332.151 620.706 330.05C617.179 331.994 613.59 333.624 609.984 335.003C606.41 336.383 602.774 337.496 599.168 338.374Z" fill="white"/>
<path d="M79.565 339.533C80.2077 336.696 78.3423 334.016 78.1542 333.734C80.6466 334.157 82.7784 332.746 83.4054 330.458C84.0481 328.091 83.0135 325.332 80.8817 323.686C83.327 322.714 84.8946 320.441 85.0043 317.839C85.161 314.548 83.0292 311.225 79.6904 309.735C83.9854 305.895 85.4119 299.813 83.6562 294.578C81.4147 287.916 74.8154 285.596 74.4078 285.455C76.3986 281.677 75.8186 277.116 73.0597 274.138C70.6771 271.551 66.9464 270.47 63.5449 271.567C66.1313 267.429 66.0216 262.241 63.4195 258.557C60.3314 254.184 55.1116 254.137 54.7667 254.137C56.6007 248.384 55.7386 242.161 52.3997 237.568C48.6063 232.333 43.073 231.643 42.1952 231.565C42.2422 230.938 42.6811 225.828 39.6244 221.878C36.991 218.461 30.4544 216.329 27.1469 219.856C24.921 218.226 19.5444 217.332 16.2369 220.122C13.384 222.536 11.7852 227.207 12.2084 232.082C6.58097 230.907 1.2357 235.703 0.21681 243.431C-0.739381 250.579 2.38 258.385 7.41176 261.692C6.8788 261.974 2.55242 264.294 1.92541 271.191C1.42381 276.677 3.60267 282.822 7.3804 286.662C6.95717 287.117 3.24214 291.27 4.52751 298.967C5.56207 305.064 9.44954 310.801 14.1835 313.341C12.8511 318.498 14.3559 325.238 18.1336 330.426C22.2876 336.116 28.3382 338.859 33.0408 337.527C32.9154 342.465 36.5364 347.888 40.6276 349.518C43.9978 350.866 47.1172 349.518 48.2772 346.321C49.8447 350.239 53.4813 353.171 56.6948 353.343C59.3439 353.484 61.319 351.76 61.8363 349.079C63.2941 351.039 65.4102 352.277 67.2442 352.246C69.6896 352.214 73.5457 348.766 73.2165 344.581C76.0694 344.879 79.0163 341.947 79.565 339.533Z" fill="url(#paint8_linear)"/>
<path d="M68.4512 312.588C67.2129 315.159 65.9118 317.777 64.4697 320.253C63.7957 321.523 63.0276 322.746 62.3222 323.968C61.8676 324.752 61.366 325.52 60.8801 326.273C55.4408 318.404 52.9797 314.313 48.575 305.833C49.2647 304.876 50.0014 303.936 50.6598 302.995C51.4749 301.804 52.3527 300.597 53.1522 299.39C54.7354 296.992 56.3656 294.484 57.8547 291.992C59.3439 289.499 60.786 286.929 62.1341 284.342C63.4822 281.756 64.7675 279.154 65.8335 276.442C64.6892 279.091 63.2941 281.646 61.8676 284.154C60.4412 286.662 58.9207 289.155 57.3375 291.553C55.7699 293.935 54.0457 296.365 52.3841 298.638C51.5533 299.782 50.6441 300.942 49.782 302.071C49.1707 302.87 48.5123 303.654 47.8696 304.438C43.9038 296.663 42.1481 292.666 39.0915 284.468C40.4082 282.618 41.7249 280.721 42.9633 278.825C44.2957 276.787 45.5967 274.671 46.8664 272.571C48.1204 270.47 49.3274 268.307 50.4874 266.144C51.6473 263.981 52.7603 261.802 53.7635 259.56C52.6819 261.739 51.4749 263.871 50.2366 265.956C48.9982 268.04 47.7129 270.125 46.3805 272.132C45.0481 274.138 43.653 276.16 42.2579 278.088C41.0665 279.734 39.8125 281.348 38.5428 282.947C34.8591 272.774 33.3543 267.539 31.1284 256.88C33.7148 253.902 36.1602 250.751 38.4644 247.491C40.8157 244.152 45.0794 237.161 45.0794 237.161C45.0794 237.161 40.659 244.011 38.245 247.24C35.9564 250.328 33.5111 253.259 30.956 256.034C28.6517 244.716 27.8993 238.932 27.3193 227.239C27.5231 234.637 27.7896 238.321 28.6988 245.61C25.6421 244.983 22.5854 243.948 19.6071 242.6C16.5348 241.205 10.5782 237.49 10.5782 237.49C10.5782 237.49 16.4564 241.456 19.5131 242.976C22.5227 244.465 25.6264 245.641 28.7771 246.393C30.2036 257.554 31.3165 263.072 34.3419 273.84C32.4765 273.683 30.6111 273.433 28.7458 273.056C26.6296 272.633 24.4821 272.1 22.3503 271.426C18.1023 270.094 13.8543 268.354 9.71602 266.081C13.8073 268.605 18.0396 270.611 22.2876 272.194C24.4194 272.994 26.5669 273.636 28.7144 274.185C30.7209 274.702 32.743 275.063 34.7651 275.329C37.3202 284.217 38.872 288.575 42.4773 297.07C37.7277 297.964 32.7273 298.089 27.6799 297.603C22.3033 297.086 16.8169 295.957 11.3306 294.123C16.8012 296.24 22.3189 297.619 27.7582 298.387C32.9311 299.108 38.0882 299.202 43.0573 298.434C46.8037 307.071 48.9355 311.287 53.7165 319.423C51.6003 319.987 49.4528 320.457 47.2583 320.771C44.6405 321.147 41.9287 321.398 39.2012 321.445C33.7462 321.539 28.1031 321.069 22.3816 319.752C28.1188 321.335 33.8246 322.072 39.3736 322.213C42.1481 322.276 44.907 322.15 47.5875 321.884C49.9231 321.649 52.2117 321.225 54.4689 320.724C64.2346 336.743 75.9283 350.412 89.268 363.485C90.2085 362.435 90.6787 361.902 91.6193 360.851C80.5996 350.522 70.442 339.91 61.7265 327.511C62.2438 326.586 62.7925 325.661 63.2784 324.736C63.9524 323.451 64.6735 322.181 65.3005 320.865C66.6329 318.278 67.8556 315.582 68.9999 312.933C70.1598 310.269 71.2257 307.525 72.1976 304.782C73.1695 302.039 74.0943 299.281 74.784 296.459C74.0003 299.249 72.9971 301.961 71.9155 304.641C70.8495 307.322 69.6896 310.018 68.4512 312.588Z" fill="white"/>
<path d="M452.777 343.828C455.364 339.643 458.138 335.677 460.584 331.273C462.261 328.248 463.781 325.05 465.129 321.664C464.267 313.262 462.088 304.234 458.953 296.381C458.718 296.945 458.467 297.478 458.185 297.995C453.624 306.679 448.012 315.473 443.827 324.266C443.278 325.426 442.776 326.68 442.275 327.95C443.497 321.178 445.112 314.61 447.181 308.372C449.438 301.6 452.244 295.236 453.545 287.806C453.686 286.976 453.812 286.098 453.89 285.251C448.231 275 440.645 265.83 430.299 260.125C430.44 265.924 430.848 271.865 431.13 277.649C431.365 282.446 431.522 287.273 431.914 292.07C428.857 280.972 427.007 269.561 425.879 258.103C420.753 256.159 416.019 255.642 411.943 255.814C412.304 260.36 412.805 264.952 413.417 269.498C411.708 265.093 410.047 260.642 408.463 256.159C401.206 257.193 396.754 260.062 396.754 260.062C395.39 260.767 392.224 263.024 388.571 266.551C391.691 271.003 394.23 275.956 396.284 281.066C392.835 276.975 389.01 273.386 384.888 270.392C382.348 273.244 379.731 276.615 377.395 280.392C384.809 286.019 389.653 293.167 394.403 300.989C391.926 298.277 389.23 295.785 386.424 293.622C382.568 290.659 378.477 288.214 374.323 285.957C370.639 292.963 368.523 302.76 369.338 310.629C370.576 311.381 371.862 312.102 373.1 312.808C379.433 316.382 386.095 319.971 391.236 325.771C393.509 328.326 395.453 331.289 397.24 334.345C397.334 334.518 397.428 334.674 397.538 334.831C392.13 329.423 384.417 324.501 377.379 321.711C375.232 320.865 372.99 320.081 370.749 319.532C372.269 326.633 373.837 333.248 375.467 339.502C376.345 339.894 377.207 340.286 378.1 340.693C387.458 344.91 396.362 351.102 402.036 359.676C402.24 359.989 402.475 360.35 402.679 360.679C397.35 355.757 391.942 351.07 385.656 348.406C382.928 347.246 380.091 346.477 377.223 345.913C380.013 355.287 383.022 364.472 386.298 373.673C386.816 374.003 387.364 374.347 387.882 374.661C393.258 377.953 398.933 381.182 403.149 386.417C405.751 389.63 407.664 393.518 409.122 397.703C408.855 397.499 408.557 397.295 408.275 397.092C403.149 393.361 397.585 390.383 391.816 388.11C399.952 408.628 409.31 460.873 409.31 460.873C409.325 460.873 438.779 416.748 451.006 393.769C448.655 395.289 446.335 396.857 444.015 398.424C441.052 400.43 438.027 402.437 435.017 404.381C435.582 403.628 436.177 402.876 436.788 402.186C438.293 400.462 439.924 398.879 441.428 397.139C443.121 395.179 444.673 392.954 446.272 390.79C450.097 385.586 454.157 380.664 458.405 376.197C463.28 362.058 465.38 347.998 465.788 333.107C465.521 333.593 465.255 334.047 464.973 334.518C463.233 337.59 461.43 340.678 459.377 343.295C457.401 345.819 455.16 347.935 452.965 350.02C450.191 352.653 447.401 355.365 444.752 358.234C447.275 353.265 449.94 348.421 452.777 343.828Z" fill="url(#paint9_linear)"/>
<path d="M425.722 392.938C426.176 385.477 426.255 381.73 426.145 374.269C428.606 369.441 431.177 364.613 433.795 359.864C436.553 354.848 439.422 349.769 442.228 344.722C445.034 339.675 447.84 334.549 450.598 329.392C453.357 324.25 456.069 319.015 458.781 313.827C455.912 318.843 453.059 323.906 450.16 328.89C447.26 333.891 444.313 338.875 441.381 343.781C438.434 348.703 435.44 353.672 432.541 358.578C430.346 362.293 428.167 366.071 426.051 369.88C425.769 361.071 425.424 356.65 424.358 347.888C426.991 343.248 429.421 338.358 431.49 333.232C433.606 328.012 435.425 322.432 436.898 316.695C438.372 310.958 439.469 304.955 440.19 298.81C440.911 292.65 441.256 286.302 441.037 279.797C441.068 286.239 440.535 292.509 439.657 298.544C438.779 304.594 437.51 310.457 435.895 316.053C434.28 321.648 432.321 327.056 430.095 332.104C428.245 336.32 426.129 340.364 423.872 344.205C422.963 337.511 422.383 334.188 421.019 327.558C421.129 327.605 421.192 327.621 421.301 327.668C422.069 322.714 422.634 317.667 422.9 312.557C423.167 307.447 423.292 302.149 422.979 296.96C422.336 286.113 420.753 275.768 418.543 264.952C420.377 275.721 421.631 286.019 421.897 296.772C422.022 301.882 421.74 307.102 421.301 312.118C420.988 315.708 420.533 319.235 419.953 322.714C416.176 307.51 411.426 293.073 405.469 278.59C411.081 293.293 415.454 307.949 418.84 323.326C414.028 316.523 409.278 309.61 404.356 302.917C398.713 295.268 392.819 287.806 386.753 280.423C392.569 288.057 398.18 295.769 403.573 303.669C406.284 307.635 408.887 311.726 411.536 315.802C414.169 319.877 416.787 324.015 419.514 328.091C419.593 328.012 419.624 327.965 419.702 327.887C420.753 333.781 421.192 336.743 421.881 342.668C419.561 338.797 417.069 335.113 414.373 331.696C410.783 327.103 406.927 322.824 402.883 318.952C398.823 315.096 394.575 311.538 390.186 308.372C385.797 305.221 381.267 302.384 376.627 300.001C381.204 302.556 385.656 305.55 389.935 308.858C394.214 312.181 398.337 315.88 402.256 319.861C406.175 323.859 409.858 328.263 413.26 332.919C416.661 337.574 419.702 342.668 422.446 347.982C423.261 356.603 423.48 360.914 423.543 369.535C421.395 365.758 418.966 362.231 416.379 359.033C412.868 354.722 408.965 350.804 404.921 347.34C400.892 343.891 396.613 340.803 392.255 338.091C387.897 335.38 383.399 332.997 378.821 331.022C383.352 333.154 387.756 335.709 392.02 338.593C396.284 341.477 400.438 344.706 404.325 348.311C408.228 351.917 411.959 355.945 415.282 360.35C418.433 364.519 421.239 369.175 423.559 374.159C423.48 380.884 423.323 384.238 422.79 390.931C421.16 388.188 419.358 385.586 417.398 383.266C414.577 379.912 411.473 376.887 408.228 374.238C404.983 371.589 401.566 369.237 398.055 367.184C394.544 365.131 390.938 363.328 387.239 361.87C390.876 363.5 394.403 365.491 397.804 367.701C401.206 369.927 404.497 372.451 407.601 375.241C410.705 378.031 413.636 381.213 416.254 384.63C418.605 387.702 420.659 391.167 422.414 394.819C417.806 434.241 405.485 469.948 384.794 503.838C386.91 505.154 387.976 505.813 390.092 507.129C410.141 472.3 421.772 435.84 425.487 395.838C431.522 391.856 437.118 386.793 442.275 381.103C447.84 374.959 453.106 367.717 457.151 360.444C452.856 367.372 447.369 374.238 441.632 379.99C436.694 385.053 431.349 389.474 425.722 392.938Z" fill="#5148FF"/>
<path d="M34.3262 346.462C32.4922 343.515 30.5328 340.709 28.8242 337.606C27.6328 335.458 26.5669 333.201 25.6107 330.818C26.2221 324.878 27.7582 318.514 29.9685 312.965C30.1409 313.357 30.3133 313.748 30.5014 314.109C33.7148 320.238 37.6807 326.445 40.6433 332.652C41.0352 333.467 41.38 334.361 41.7406 335.254C40.8784 330.473 39.7341 325.834 38.2763 321.429C36.6775 316.648 34.7024 312.165 33.7775 306.898C33.6678 306.303 33.5894 305.691 33.5424 305.096C37.5396 297.854 42.9005 291.38 50.2052 287.352C50.1112 291.443 49.8133 295.644 49.6096 299.719C49.4371 303.105 49.3274 306.522 49.0609 309.908C51.2241 302.071 52.5252 294.014 53.3246 285.925C56.9456 284.562 60.2844 284.186 63.1686 284.311C62.9178 287.524 62.5573 290.753 62.1184 293.967C63.3254 290.863 64.501 287.712 65.614 284.546C70.7398 285.267 73.8749 287.289 73.8749 287.289C74.831 287.791 77.0726 289.39 79.659 291.866C77.4645 295.017 75.6618 298.497 74.2197 302.118C76.6494 299.218 79.3612 296.694 82.2611 294.578C84.0638 296.6 85.8978 298.967 87.5437 301.647C82.3081 305.629 78.8909 310.676 75.5364 316.194C77.2921 314.281 79.1888 312.526 81.1638 310.99C83.8757 308.889 86.7756 307.165 89.7069 305.582C92.309 310.535 93.7981 317.448 93.2181 323.012C92.3403 323.545 91.4311 324.062 90.5533 324.548C86.0859 327.072 81.3833 329.611 77.7466 333.703C76.1478 335.505 74.7683 337.606 73.4986 339.753C73.4359 339.878 73.3732 339.988 73.2949 340.098C77.104 336.273 82.5589 332.793 87.528 330.834C89.0485 330.238 90.616 329.674 92.2149 329.298C91.149 334.314 90.036 338.985 88.8918 343.405C88.2804 343.687 87.6534 343.954 87.0264 344.236C80.4114 347.214 74.1413 351.588 70.1285 357.638C69.9874 357.857 69.815 358.108 69.6739 358.343C73.4359 354.879 77.245 351.556 81.6968 349.675C83.6249 348.86 85.6156 348.312 87.6534 347.92C85.6783 354.534 83.5622 361.024 81.2422 367.529C80.8817 367.764 80.4898 367.999 80.1293 368.219C76.3359 370.538 72.323 372.827 69.3447 376.526C67.5107 378.799 66.1469 381.542 65.1281 384.489C65.3162 384.348 65.5356 384.207 65.7237 384.066C69.3447 381.433 73.2792 379.332 77.3391 377.718C71.6019 392.201 64.987 429.1 64.987 429.1C64.9713 429.1 44.1702 397.938 35.5488 381.715C37.2104 382.781 38.8563 383.893 40.4866 385.006C42.5714 386.433 44.7032 387.828 46.835 389.207C46.4275 388.674 46.0199 388.157 45.581 387.655C44.5151 386.433 43.3708 385.32 42.3049 384.082C41.0979 382.702 40.0163 381.135 38.8877 379.599C36.1759 375.915 33.323 372.451 30.329 369.3C26.8961 359.315 25.407 349.393 25.1248 338.875C25.3129 339.22 25.501 339.534 25.6891 339.878C26.9118 342.057 28.1815 344.236 29.6393 346.086C31.0344 347.873 32.6176 349.362 34.1694 350.835C36.1288 352.7 38.1039 354.597 39.9693 356.635C38.198 353.124 36.3326 349.691 34.3262 346.462Z" fill="url(#paint10_linear)"/>
<path d="M53.4186 381.135C53.1051 375.868 53.0424 373.234 53.1208 367.952C51.3809 364.535 49.5782 361.133 47.7129 357.779C45.7534 354.236 43.747 350.663 41.7563 347.089C39.7812 343.531 37.7904 339.91 35.8467 336.273C33.9029 332.636 31.9906 328.953 30.0625 325.285C32.0846 328.827 34.1067 332.401 36.1445 335.928C38.198 339.455 40.2671 342.966 42.3519 346.446C44.4367 349.926 46.5372 353.437 48.5907 356.901C50.1425 359.519 51.6787 362.199 53.1835 364.88C53.3873 358.657 53.6224 355.537 54.3748 349.362C52.5095 346.086 50.8009 342.637 49.3274 339.016C47.8383 335.333 46.5529 331.398 45.5026 327.338C44.4681 323.279 43.6843 319.046 43.1827 314.704C42.6811 310.362 42.4303 305.879 42.587 301.287C42.5714 305.848 42.9319 310.253 43.5589 314.532C44.1859 318.796 45.0637 322.949 46.208 326.899C47.3523 330.85 48.7317 334.674 50.2993 338.232C51.616 341.211 53.0895 344.063 54.6883 346.775C55.331 342.057 55.7386 339.706 56.6948 335.019C56.6164 335.05 56.5694 335.066 56.491 335.097C55.958 331.602 55.5505 328.044 55.3624 324.423C55.1743 320.818 55.0802 317.071 55.2997 313.419C55.7543 305.77 56.8829 298.45 58.4347 290.816C57.1337 298.418 56.2559 305.691 56.0678 313.278C55.9737 316.883 56.1775 320.567 56.491 324.109C56.7105 326.633 57.0396 329.141 57.4472 331.586C60.112 320.849 63.4665 310.66 67.6675 300.44C63.7173 310.833 60.6136 321.162 58.231 332.025C61.6325 327.213 64.987 322.338 68.4669 317.62C72.4484 312.212 76.618 306.945 80.8974 301.726C76.7905 307.118 72.8246 312.557 69.0312 318.137C67.1188 320.927 65.2848 323.827 63.4195 326.711C61.5541 329.596 59.7201 332.511 57.7764 335.38C57.7293 335.317 57.698 335.286 57.6353 335.239C56.8986 339.408 56.5851 341.493 56.0991 345.678C57.7293 342.951 59.5007 340.349 61.3974 337.935C63.9367 334.69 66.6486 331.665 69.5171 328.937C72.3857 326.21 75.3797 323.702 78.4834 321.476C81.5871 319.25 84.7848 317.259 88.061 315.567C84.8319 317.369 81.6968 319.485 78.6715 321.821C75.6462 324.156 72.7306 326.774 69.9717 329.596C67.2129 332.417 64.6108 335.521 62.1968 338.812C59.7985 342.104 57.651 345.694 55.7072 349.456C55.1273 355.537 54.9705 358.594 54.9391 364.676C56.4596 362.011 58.1683 359.519 60.0023 357.262C62.479 354.221 65.2378 351.446 68.0907 349.017C70.9436 346.571 73.9532 344.408 77.0413 342.48C80.1136 340.568 83.2957 338.875 86.5248 337.496C83.327 339 80.2233 340.803 77.2137 342.841C74.204 344.879 71.2728 347.167 68.5296 349.706C65.7708 352.246 63.1373 355.099 60.8017 358.202C58.5758 361.149 56.6007 364.425 54.9705 367.952C55.0332 372.701 55.1273 375.068 55.5191 379.802C56.6791 377.859 57.9488 376.04 59.3282 374.394C61.319 372.027 63.5135 369.88 65.8021 368.015C68.0907 366.149 70.5047 364.488 72.9814 363.03C75.4581 361.572 77.9975 360.303 80.6152 359.268C78.0445 360.428 75.5521 361.823 73.1538 363.391C70.7555 364.958 68.4199 366.745 66.2253 368.72C64.0308 370.695 61.9617 372.937 60.112 375.351C58.4504 377.529 56.9926 379.959 55.7543 382.545C59.0147 410.384 67.7145 435.589 82.3082 459.525C80.819 460.449 80.0666 460.92 78.5618 461.845C64.407 437.251 56.1932 411.512 53.5754 383.266C49.3117 380.445 45.3616 376.887 41.7249 372.858C37.8061 368.516 34.0754 363.406 31.2225 358.281C34.2478 363.171 38.1353 368.015 42.1795 372.074C45.6751 375.57 49.4528 378.689 53.4186 381.135Z" fill="#5148FF"/>
<path d="M519.961 380.68C522.689 378.439 525.495 376.385 528.175 373.971C530.025 372.31 531.796 370.476 533.489 368.501C534.853 362.591 535.464 355.945 535.166 349.895C534.884 350.224 534.571 350.537 534.273 350.819C529.163 355.663 523.316 360.334 518.41 365.334C517.767 365.993 517.14 366.729 516.497 367.482C518.895 363.156 521.529 359.08 524.382 355.334C527.486 351.258 530.871 347.59 533.489 342.841C533.787 342.308 534.069 341.744 534.32 341.179C532.862 332.887 529.837 324.909 524.131 318.623C522.877 322.605 521.78 326.727 520.635 330.724C519.679 334.032 518.66 337.355 517.814 340.709C518.315 332.448 519.711 324.282 521.607 316.241C518.566 313.733 515.478 312.275 512.672 311.444C511.857 314.61 511.136 317.855 510.494 321.084C510.352 317.698 510.258 314.281 510.227 310.88C505.054 309.892 501.371 310.801 501.371 310.801C500.273 310.974 497.608 311.773 494.301 313.309C495.383 317.056 495.963 321.006 496.166 324.956C494.771 321.366 493 318.043 490.915 315.049C488.517 316.397 485.977 318.075 483.501 320.112C487.231 325.661 488.862 331.633 490.272 338.06C489.222 335.63 487.968 333.326 486.557 331.194C484.629 328.279 482.419 325.677 480.115 323.185C475.977 327.088 472.277 333.248 470.992 338.797C471.65 339.596 472.356 340.396 473.045 341.148C476.525 345.051 480.209 349.033 482.356 354.158C483.313 356.431 483.94 358.892 484.441 361.384C484.473 361.525 484.488 361.651 484.535 361.776C482.121 356.839 478.03 351.713 473.892 348.186C472.622 347.104 471.29 346.054 469.895 345.176C469.283 350.349 468.797 355.208 468.468 359.832C468.97 360.303 469.471 360.773 469.989 361.243C475.365 366.275 479.974 372.56 481.839 379.693C481.902 379.959 481.98 380.257 482.043 380.523C479.566 375.946 476.98 371.51 473.328 368.234C471.744 366.808 470.004 365.632 468.17 364.582C467.888 371.589 467.794 378.533 467.888 385.555C468.17 385.9 468.452 386.26 468.735 386.59C471.619 390.069 474.723 393.58 476.384 398.126C477.403 400.916 477.811 404.004 477.811 407.186C477.67 406.982 477.528 406.779 477.387 406.575C474.77 402.844 471.682 399.537 468.296 396.653C469.048 412.484 463.28 450.151 463.28 450.151C463.295 450.151 493.549 427.015 507.186 414.24C505.227 414.726 503.299 415.259 501.355 415.792C498.878 416.466 496.354 417.124 493.862 417.751C494.426 417.375 495.006 416.999 495.571 416.67C496.997 415.854 498.471 415.149 499.897 414.318C501.512 413.378 503.079 412.234 504.662 411.136C508.471 408.487 512.375 406.089 516.293 404.036C522.893 395.556 527.58 386.495 531.31 376.479C531.012 376.746 530.73 376.981 530.432 377.247C528.536 378.94 526.592 380.617 524.601 381.918C522.673 383.172 520.651 384.082 518.676 384.991C516.184 386.135 513.66 387.326 511.199 388.659C514.036 385.821 516.967 383.141 519.961 380.68Z" fill="url(#paint11_linear)"/>
<path d="M490.179 407.766C492.216 402.797 493.141 400.289 494.803 395.179C497.593 392.468 500.461 389.787 503.346 387.17C506.387 384.411 509.506 381.621 512.594 378.831C515.666 376.056 518.77 373.219 521.843 370.366C524.915 367.513 527.972 364.582 531.013 361.698C527.893 364.441 524.789 367.215 521.654 369.927C518.519 372.655 515.369 375.351 512.234 378C509.083 380.664 505.901 383.345 502.781 386.01C500.43 388.016 498.079 390.085 495.743 392.186C497.593 386.135 498.392 383.063 499.709 376.856C502.578 374.316 505.368 371.557 507.97 368.564C510.619 365.507 513.158 362.137 515.478 358.579C517.814 355.02 519.946 351.196 521.858 347.183C523.771 343.17 525.479 338.938 526.843 334.471C525.369 338.86 523.551 342.982 521.545 346.885C519.538 350.788 517.328 354.487 514.93 357.905C512.531 361.337 509.945 364.551 507.265 367.466C505.023 369.896 502.656 372.153 500.226 374.238C501.167 369.488 501.543 367.09 502.154 362.262C502.217 362.325 502.248 362.341 502.327 362.403C503.988 359.221 505.556 355.914 506.92 352.497C508.283 349.08 509.6 345.506 510.603 341.916C512.688 334.408 514.005 326.994 515.024 319.141C513.77 326.884 512.234 334.173 509.914 341.54C508.816 345.051 507.406 348.515 505.948 351.823C504.898 354.19 503.769 356.478 502.578 358.704C503.534 347.496 503.659 336.587 502.985 325.364C503.377 336.665 502.954 347.622 501.668 358.861C499.976 353.124 498.361 347.324 496.558 341.634C494.505 335.129 492.232 328.687 489.834 322.26C492.013 328.796 494.035 335.333 495.853 341.948C496.762 345.271 497.593 348.656 498.439 352.042C499.286 355.428 500.101 358.829 501.01 362.247C501.073 362.215 501.12 362.184 501.183 362.152C500.524 366.4 500.132 368.516 499.239 372.702C498.565 369.535 497.718 366.447 496.699 363.501C495.32 359.55 493.705 355.741 491.84 352.183C489.975 348.625 487.921 345.224 485.68 342.057C483.438 338.891 481.008 335.928 478.406 333.217C480.93 336.022 483.25 339.079 485.382 342.324C487.529 345.568 489.457 349.048 491.197 352.669C492.922 356.29 494.411 360.13 495.649 364.096C496.888 368.046 497.765 372.216 498.392 376.464C496.95 382.498 496.088 385.492 494.129 391.37C493.549 388.298 492.718 385.351 491.699 382.577C490.32 378.831 488.564 375.272 486.636 371.981C484.692 368.705 482.513 365.617 480.178 362.748C477.842 359.895 475.35 357.231 472.685 354.832C475.271 357.34 477.67 360.099 479.895 363.046C482.121 365.993 484.191 369.159 485.993 372.498C487.796 375.852 489.41 379.458 490.633 383.22C491.793 386.778 492.64 390.587 493.047 394.521C491.433 399.067 490.555 401.308 488.627 405.744C488.156 403.503 487.529 401.324 486.746 399.286C485.617 396.355 484.206 393.565 482.607 391.026C481.008 388.471 479.237 386.088 477.34 383.862C475.444 381.652 473.406 379.583 471.227 377.733C473.312 379.693 475.256 381.856 477.058 384.16C478.861 386.464 480.507 388.941 481.965 391.559C483.422 394.176 484.676 397.013 485.664 399.96C486.542 402.594 487.138 405.415 487.482 408.315C475.193 434.022 458.53 455.418 436.616 473.648C437.745 475.027 438.325 475.733 439.453 477.112C461.164 458.098 477.529 436.044 489.348 409.726C494.364 408.425 499.349 406.277 504.177 403.613C509.381 400.728 514.648 397.029 519.084 393.032C514.554 396.747 509.24 400.133 504.004 402.703C499.458 404.945 494.803 406.716 490.179 407.766Z" fill="#5148FF"/>
<path d="M126.795 383.799C124.067 381.558 121.261 379.504 118.581 377.09C116.731 375.429 114.96 373.595 113.267 371.62C111.903 365.71 111.292 359.064 111.59 353.014C111.872 353.343 112.185 353.656 112.483 353.939C117.593 358.782 123.44 363.453 128.346 368.454C128.989 369.112 129.616 369.849 130.259 370.601C127.86 366.275 125.227 362.199 122.374 358.453C119.27 354.377 115.885 350.71 113.267 345.96C112.969 345.427 112.687 344.863 112.436 344.299C113.894 336.007 116.919 328.028 122.625 321.742C123.879 325.724 124.976 329.846 126.12 333.843C127.077 337.151 128.096 340.474 128.942 343.828C128.44 335.568 127.045 327.401 125.149 319.36C128.19 316.852 131.278 315.394 134.084 314.563C134.899 317.73 135.62 320.974 136.262 324.203C136.403 320.818 136.498 317.4 136.529 313.999C141.702 313.011 145.385 313.921 145.385 313.921C146.483 314.093 149.147 314.892 152.455 316.429C151.373 320.175 150.793 324.125 150.59 328.075C151.985 324.485 153.756 321.162 155.841 318.168C158.239 319.517 160.794 321.194 163.255 323.232C159.524 328.78 157.894 334.753 156.483 341.179C157.534 338.75 158.788 336.445 160.199 334.314C162.127 331.398 164.337 328.796 166.641 326.304C170.779 330.207 174.479 336.367 175.764 341.916C175.106 342.715 174.4 343.515 173.711 344.267C170.231 348.17 166.547 352.152 164.399 357.277C163.459 359.55 162.816 362.011 162.315 364.503C162.283 364.645 162.268 364.77 162.221 364.895C164.635 359.958 168.726 354.832 172.864 351.305C174.134 350.224 175.466 349.173 176.861 348.296C177.473 353.468 177.959 358.328 178.288 362.952C177.786 363.422 177.285 363.892 176.767 364.362C171.391 369.394 166.782 375.68 164.917 382.812C164.854 383.078 164.776 383.376 164.713 383.642C167.19 379.065 169.776 374.629 173.428 371.353C175.012 369.927 176.752 368.751 178.586 367.701C178.868 374.708 178.962 381.652 178.868 388.674C178.586 389.019 178.303 389.379 178.021 389.709C175.137 393.188 172.033 396.7 170.372 401.245C169.353 404.035 168.945 407.123 168.945 410.305C169.086 410.102 169.227 409.898 169.369 409.694C171.986 405.963 175.074 402.656 178.46 399.772C177.708 415.604 183.476 453.27 183.476 453.27C183.461 453.27 153.207 430.134 139.57 417.359C141.529 417.845 143.457 418.378 145.401 418.911C147.878 419.585 150.401 420.243 152.894 420.87C152.33 420.494 151.75 420.118 151.185 419.789C149.759 418.974 148.285 418.268 146.859 417.438C145.244 416.497 143.677 415.353 142.094 414.256C138.285 411.606 134.381 409.208 130.463 407.155C123.863 398.675 119.176 389.615 115.446 379.598C115.743 379.865 116.026 380.1 116.323 380.366C118.22 382.059 120.164 383.737 122.155 385.038C124.083 386.292 126.105 387.201 128.08 388.11C130.572 389.254 133.096 390.445 135.557 391.778C132.72 388.941 129.789 386.245 126.795 383.799Z" fill="url(#paint12_linear)"/>
<path d="M156.578 410.87C154.54 405.901 153.615 403.393 151.953 398.283C149.163 395.571 146.295 392.891 143.41 390.273C140.369 387.514 137.25 384.724 134.162 381.934C131.09 379.16 127.986 376.322 124.914 373.47C121.841 370.617 118.784 367.686 115.743 364.801C118.863 367.545 121.967 370.319 125.102 373.031C128.237 375.758 131.387 378.454 134.522 381.103C137.673 383.768 140.855 386.448 143.975 389.113C146.326 391.12 148.677 393.189 151.013 395.289C149.163 389.239 148.364 386.166 147.047 379.959C144.178 377.42 141.388 374.661 138.786 371.667C136.137 368.61 133.598 365.24 131.278 361.682C128.942 358.124 126.81 354.299 124.898 350.286C122.985 346.274 121.277 342.042 119.913 337.574C121.387 341.963 123.205 346.086 125.211 349.989C127.218 353.892 129.428 357.591 131.826 361.008C134.225 364.441 136.811 367.654 139.491 370.57C141.733 372.999 144.1 375.257 146.53 377.341C145.589 372.592 145.213 370.194 144.602 365.366C144.539 365.428 144.508 365.444 144.429 365.507C142.768 362.325 141.2 359.017 139.836 355.6C138.473 352.183 137.156 348.609 136.153 345.02C134.068 337.511 132.751 330.097 131.732 322.244C132.986 329.988 134.522 337.276 136.842 344.644C137.94 348.155 139.35 351.619 140.808 354.926C141.858 357.293 142.987 359.582 144.178 361.808C143.222 350.6 143.097 339.69 143.771 328.467C143.379 339.769 143.802 350.725 145.088 361.964C146.78 356.227 148.395 350.428 150.198 344.738C152.251 338.233 154.524 331.79 156.922 325.363C154.744 331.9 152.721 338.436 150.903 345.051C149.994 348.374 149.163 351.76 148.317 355.146C147.47 358.531 146.655 361.933 145.746 365.35C145.683 365.319 145.636 365.287 145.574 365.256C146.232 369.504 146.624 371.62 147.517 375.805C148.191 372.639 149.038 369.551 150.057 366.604C151.436 362.654 153.051 358.845 154.9 355.287C156.766 351.729 158.819 348.327 161.061 345.161C163.302 341.994 165.732 339.032 168.334 336.32C165.81 339.126 163.49 342.183 161.358 345.427C159.211 348.672 157.283 352.152 155.543 355.773C153.819 359.394 152.33 363.234 151.091 367.2C149.853 371.15 148.975 375.319 148.348 379.567C149.79 385.602 150.652 388.596 152.612 394.474C153.192 391.402 154.022 388.455 155.041 385.68C156.421 381.934 158.176 378.376 160.104 375.084C162.048 371.808 164.227 368.72 166.563 365.852C168.898 362.999 171.391 360.334 174.055 357.936C171.469 360.444 169.071 363.203 166.845 366.149C164.619 369.096 162.55 372.263 160.747 375.601C158.929 378.956 157.33 382.561 156.107 386.323C154.947 389.881 154.101 393.69 153.693 397.625C155.308 402.17 156.186 404.412 158.114 408.848C158.584 406.606 159.211 404.428 159.995 402.39C161.123 399.459 162.534 396.684 164.133 394.129C165.732 391.574 167.503 389.192 169.4 386.966C171.297 384.756 173.334 382.686 175.513 380.837C173.428 382.796 171.485 384.959 169.682 387.264C167.879 389.568 166.233 392.044 164.776 394.662C163.318 397.28 162.064 400.117 161.076 403.048C160.199 405.682 159.603 408.503 159.258 411.403C171.547 437.11 188.21 458.506 210.124 476.736C208.996 478.131 208.416 478.82 207.287 480.2C185.577 461.186 169.212 439.132 157.393 412.814C152.377 411.513 147.392 409.365 142.564 406.7C137.36 403.816 132.093 400.117 127.657 396.12C132.187 399.835 137.501 403.221 142.736 405.791C147.298 408.064 151.953 409.82 156.578 410.87Z" fill="#5148FF"/>
<path d="M241.788 432.47C239.061 430.228 236.255 428.175 233.574 425.761C231.725 424.099 229.953 422.266 228.261 420.29C226.897 414.381 226.285 407.735 226.583 401.684C226.865 402.014 227.179 402.327 227.477 402.609C232.587 407.453 238.434 412.124 243.34 417.124C243.983 417.782 244.61 418.519 245.252 419.272C242.854 414.945 240.221 410.87 237.368 407.124C234.264 403.048 230.878 399.38 228.261 394.631C227.963 394.098 227.681 393.533 227.43 392.969C228.888 384.677 231.913 376.699 237.619 370.413C238.873 374.394 239.97 378.517 241.114 382.514C242.07 385.821 243.089 389.145 243.936 392.499C243.434 384.238 242.039 376.072 240.142 368.03C243.183 365.522 246.271 364.065 249.077 363.234C249.892 366.4 250.613 369.645 251.256 372.874C251.397 369.488 251.491 366.071 251.523 362.67C256.695 361.682 260.379 362.591 260.379 362.591C261.476 362.764 264.141 363.563 267.449 365.099C266.367 368.846 265.787 372.796 265.583 376.746C266.978 373.156 268.75 369.833 270.835 366.839C273.233 368.187 275.772 369.864 278.249 371.902C274.518 377.451 272.888 383.423 271.477 389.85C272.527 387.42 273.781 385.116 275.192 382.984C277.12 380.069 279.331 377.467 281.635 374.974C285.773 378.877 289.472 385.038 290.758 390.587C290.099 391.386 289.394 392.185 288.704 392.938C285.224 396.841 281.541 400.822 279.393 405.948C278.453 408.221 277.81 410.682 277.308 413.174C277.277 413.315 277.261 413.441 277.214 413.566C279.628 408.628 283.72 403.503 287.858 399.976C289.128 398.894 290.46 397.844 291.855 396.966C292.466 402.139 292.952 406.998 293.281 411.622C292.78 412.093 292.278 412.563 291.761 413.033C286.384 418.065 281.776 424.35 279.91 431.482C279.848 431.749 279.769 432.047 279.707 432.313C282.183 427.736 284.77 423.3 288.422 420.024C290.005 418.598 291.745 417.422 293.579 416.372C293.861 423.378 293.955 430.322 293.861 437.345C293.579 437.69 293.297 438.05 293.015 438.379C290.131 441.859 287.027 445.37 285.365 449.916C284.347 452.706 283.939 455.794 283.939 458.976C284.08 458.772 284.221 458.569 284.362 458.365C286.98 454.634 290.068 451.327 293.454 448.443C292.701 464.274 298.47 501.941 298.47 501.941C298.454 501.941 268.201 478.805 254.564 466.03C256.523 466.516 258.451 467.049 260.395 467.582C262.871 468.256 265.395 468.914 267.888 469.541C267.323 469.165 266.743 468.789 266.179 468.459C264.753 467.644 263.279 466.939 261.853 466.108C260.238 465.168 258.671 464.023 257.087 462.926C253.278 460.277 249.375 457.879 245.456 455.825C238.857 447.345 234.17 438.285 230.439 428.269C230.737 428.535 231.019 428.771 231.317 429.037C233.214 430.73 235.158 432.407 237.148 433.708C239.076 434.962 241.099 435.871 243.074 436.78C245.566 437.925 248.09 439.116 250.551 440.448C247.714 437.611 244.782 434.931 241.788 432.47Z" fill="url(#paint13_linear)"/>
<path d="M271.556 459.556C269.518 454.587 268.593 452.079 266.931 446.969C264.141 444.257 261.273 441.577 258.388 438.959C255.347 436.201 252.228 433.41 249.14 430.62C246.068 427.846 242.964 425.009 239.892 422.156C236.819 419.303 233.763 416.372 230.722 413.488C233.841 416.231 236.945 419.005 240.08 421.717C243.215 424.444 246.365 427.141 249.501 429.79C252.651 432.454 255.833 435.135 258.953 437.799C261.304 439.806 263.655 441.875 265.991 443.975C264.141 437.925 263.342 434.853 262.025 428.645C259.156 426.106 256.366 423.347 253.764 420.353C251.115 417.297 248.576 413.927 246.256 410.368C243.92 406.81 241.788 402.986 239.876 398.973C237.964 394.96 236.255 390.728 234.891 386.26C236.365 390.649 238.183 394.772 240.189 398.675C242.196 402.578 244.406 406.277 246.804 409.694C249.203 413.127 251.789 416.341 254.47 419.256C256.711 421.686 259.078 423.943 261.508 426.028C260.567 421.278 260.191 418.88 259.58 414.052C259.517 414.115 259.486 414.13 259.407 414.193C257.746 411.011 256.178 407.704 254.814 404.287C253.451 400.869 252.134 397.296 251.131 393.706C249.046 386.198 247.729 378.784 246.71 370.93C247.964 378.674 249.5 385.963 251.82 393.33C252.918 396.841 254.328 400.305 255.786 403.613C256.837 405.979 257.965 408.268 259.156 410.494C258.2 399.286 258.075 388.377 258.749 377.153C258.357 388.455 258.78 399.412 260.066 410.651C261.759 404.914 263.373 399.114 265.176 393.424C267.229 386.919 269.502 380.476 271.9 374.05C269.722 380.586 267.699 387.123 265.881 393.737C264.956 397.06 264.141 400.446 263.295 403.832C262.448 407.218 261.633 410.619 260.724 414.036C260.661 414.005 260.614 413.974 260.552 413.942C261.21 418.19 261.602 420.306 262.495 424.491C263.169 421.325 264.016 418.237 265.035 415.29C266.414 411.34 268.029 407.531 269.894 403.973C271.759 400.415 273.813 397.013 276.054 393.847C278.296 390.681 280.726 387.718 283.328 385.006C280.804 387.812 278.484 390.869 276.352 394.114C274.205 397.358 272.277 400.838 270.537 404.459C268.812 408.08 267.323 411.92 266.085 415.886C264.847 419.836 263.969 424.006 263.342 428.253C264.784 434.288 265.646 437.282 267.605 443.16C268.185 440.088 269.016 437.141 270.035 434.367C271.415 430.62 273.17 427.062 275.098 423.77C277.042 420.494 279.221 417.406 281.556 414.538C283.892 411.685 286.384 409.02 289.049 406.622C286.463 409.13 284.064 411.889 281.839 414.836C279.613 417.783 277.544 420.949 275.741 424.288C273.938 427.642 272.324 431.247 271.101 435.009C269.941 438.567 269.095 442.377 268.687 446.311C270.302 450.857 271.179 453.098 273.107 457.534C273.578 455.293 274.205 453.114 274.988 451.076C276.117 448.145 277.528 445.37 279.127 442.815C280.726 440.26 282.497 437.878 284.394 435.652C286.29 433.442 288.328 431.373 290.507 429.523C288.422 431.482 286.478 433.646 284.676 435.95C282.873 438.254 281.227 440.731 279.769 443.348C278.312 445.966 277.058 448.803 276.07 451.734C275.192 454.368 274.597 457.189 274.252 460.089C286.541 485.796 303.204 507.192 325.118 525.422C323.989 526.817 323.409 527.507 322.281 528.886C300.57 509.872 284.206 487.818 272.386 461.5C267.37 460.199 262.386 458.051 257.558 455.387C252.353 452.502 247.086 448.803 242.65 444.806C247.181 448.521 252.494 451.907 257.73 454.477C262.276 456.75 266.947 458.506 271.556 459.556Z" fill="#5148FF"/>
<path d="M615.408 382.765C618.622 380.131 621.929 377.717 625.08 374.865C627.259 372.905 629.343 370.758 631.334 368.422C632.949 361.478 633.67 353.657 633.309 346.524C632.964 346.901 632.62 347.277 632.259 347.606C626.24 353.312 619.358 358.798 613.605 364.676C612.853 365.444 612.101 366.322 611.364 367.2C614.185 362.121 617.273 357.309 620.644 352.904C624.296 348.108 628.277 343.797 631.35 338.201C631.695 337.574 632.024 336.916 632.322 336.257C630.597 326.508 627.039 317.118 620.33 309.72C618.857 314.391 617.556 319.25 616.208 323.953C615.095 327.856 613.888 331.759 612.9 335.693C613.496 325.975 615.142 316.366 617.367 306.898C613.794 303.951 610.157 302.243 606.865 301.255C605.909 304.986 605.062 308.795 604.31 312.588C604.153 308.607 604.028 304.594 603.996 300.581C597.914 299.421 593.572 300.503 593.572 300.503C592.287 300.691 589.152 301.632 585.249 303.45C586.519 307.854 587.208 312.51 587.443 317.165C585.813 312.949 583.728 309.03 581.252 305.519C578.43 307.102 575.436 309.077 572.536 311.475C576.925 317.996 578.838 325.034 580.499 332.589C579.261 329.737 577.787 327.025 576.126 324.517C573.853 321.1 571.251 318.027 568.539 315.096C563.68 319.689 559.322 326.931 557.817 333.467C558.601 334.408 559.432 335.333 560.231 336.242C564.322 340.834 568.664 345.521 571.188 351.556C572.301 354.221 573.054 357.121 573.649 360.052C573.681 360.224 573.712 360.365 573.759 360.522C570.922 354.722 566.109 348.672 561.234 344.534C559.745 343.264 558.178 342.026 556.532 340.991C555.811 347.073 555.246 352.794 554.839 358.249C555.435 358.798 556.015 359.346 556.626 359.911C562.959 365.836 568.382 373.219 570.577 381.62C570.655 381.934 570.749 382.279 570.828 382.592C567.912 377.216 564.871 371.98 560.576 368.14C558.711 366.463 556.657 365.068 554.51 363.845C554.18 372.09 554.071 380.257 554.181 388.517C554.51 388.925 554.855 389.348 555.184 389.74C558.585 393.847 562.238 397.969 564.181 403.315C565.373 406.591 565.859 410.227 565.859 413.958C565.702 413.723 565.514 413.472 565.357 413.237C562.285 408.848 558.632 404.96 554.666 401.559C555.56 420.181 548.773 464.494 548.773 464.494C548.788 464.494 584.387 437.282 600.423 422.25C598.118 422.814 595.845 423.441 593.572 424.068C590.657 424.868 587.694 425.636 584.763 426.372C585.421 425.933 586.095 425.494 586.769 425.103C588.447 424.131 590.171 423.316 591.864 422.328C593.761 421.215 595.61 419.867 597.46 418.582C601.943 415.463 606.52 412.641 611.144 410.227C618.904 400.258 624.421 389.599 628.81 377.811C628.466 378.125 628.121 378.407 627.776 378.721C625.55 380.711 623.261 382.686 620.91 384.207C618.637 385.68 616.27 386.762 613.95 387.828C611.019 389.176 608.041 390.571 605.156 392.138C608.433 388.815 611.881 385.649 615.408 382.765Z" fill="url(#paint14_linear)"/>
<path d="M580.374 414.632C582.772 408.785 583.854 405.823 585.813 399.835C589.105 396.637 592.475 393.486 595.861 390.414C599.435 387.169 603.103 383.893 606.74 380.602C610.361 377.326 614.013 374.003 617.618 370.632C621.224 367.278 624.813 363.83 628.419 360.428C624.751 363.657 621.098 366.917 617.415 370.115C613.731 373.313 610.016 376.495 606.316 379.614C602.617 382.749 598.871 385.9 595.203 389.035C592.428 391.402 589.654 393.831 586.926 396.292C589.105 389.16 590.046 385.555 591.582 378.25C594.952 375.256 598.228 372.027 601.285 368.485C604.404 364.88 607.382 360.93 610.126 356.744C612.869 352.559 615.392 348.061 617.634 343.342C619.891 338.624 621.898 333.64 623.512 328.389C621.772 333.546 619.64 338.405 617.289 342.998C614.938 347.59 612.32 351.932 609.499 355.961C606.677 359.989 603.636 363.782 600.485 367.215C597.852 370.084 595.062 372.733 592.209 375.178C593.306 369.582 593.761 366.761 594.482 361.086C594.56 361.149 594.591 361.18 594.67 361.259C596.629 357.513 598.463 353.625 600.078 349.612C601.692 345.6 603.228 341.399 604.404 337.167C606.865 328.326 608.417 319.611 609.608 310.378C608.135 319.485 606.316 328.059 603.605 336.728C602.319 340.85 600.658 344.941 598.933 348.829C597.711 351.603 596.363 354.315 594.968 356.933C596.096 343.75 596.253 330.912 595.438 317.714C595.892 331.006 595.406 343.907 593.902 357.121C591.911 350.365 589.999 343.546 587.898 336.853C585.484 329.204 582.804 321.617 579.982 314.062C582.537 321.758 584.92 329.455 587.067 337.229C588.149 341.132 589.121 345.129 590.108 349.111C591.111 353.092 592.068 357.105 593.134 361.102C593.212 361.055 593.259 361.039 593.337 360.992C592.569 365.993 592.115 368.469 591.049 373.407C590.249 369.692 589.262 366.055 588.055 362.591C586.44 357.951 584.528 353.468 582.349 349.268C580.17 345.067 577.74 341.07 575.091 337.355C572.442 333.624 569.589 330.144 566.533 326.962C569.495 330.254 572.223 333.859 574.746 337.668C577.27 341.493 579.543 345.568 581.581 349.832C583.619 354.095 585.359 358.625 586.816 363.281C588.259 367.936 589.309 372.843 590.046 377.827C588.353 384.928 587.334 388.455 585.029 395.352C584.34 391.746 583.368 388.267 582.161 385.006C580.531 380.602 578.477 376.401 576.204 372.529C573.931 368.673 571.345 365.036 568.602 361.682C565.859 358.328 562.927 355.193 559.792 352.355C562.833 355.302 565.655 358.547 568.273 362.011C570.89 365.475 573.32 369.206 575.452 373.14C577.584 377.09 579.465 381.338 580.923 385.743C582.302 389.944 583.274 394.411 583.76 399.035C581.863 404.38 580.813 407.029 578.571 412.234C578.023 409.584 577.286 407.029 576.361 404.647C575.029 401.198 573.383 397.922 571.502 394.913C569.621 391.903 567.552 389.097 565.31 386.495C563.068 383.893 560.67 381.464 558.115 379.285C560.576 381.589 562.849 384.128 564.965 386.84C567.081 389.552 569.025 392.468 570.734 395.54C572.458 398.628 573.931 401.951 575.091 405.415C576.126 408.519 576.831 411.842 577.239 415.243C562.786 445.496 543.177 470.669 517.391 492.097C518.723 493.727 519.397 494.542 520.73 496.173C546.265 473.804 565.529 447.847 579.433 416.889C585.343 415.353 591.19 412.845 596.864 409.694C602.993 406.308 609.185 401.951 614.405 397.248C609.091 401.622 602.821 405.603 596.66 408.628C591.284 411.324 585.813 413.393 580.374 414.632Z" fill="#5148FF"/>
<path d="M495.367 498.602H447.103C447.103 472.739 430.064 447.236 417.336 425.495C416.928 424.805 416.52 424.099 416.113 423.41C405.14 404.443 390.876 386.856 386.659 364.801C385.436 358.39 385.186 351.446 388.195 345.647C391.393 339.455 397.898 335.505 404.654 333.765C485.021 313.168 501.841 420.494 495.367 498.602Z" fill="url(#paint15_linear)"/>
<path d="M474.613 498.602H472.544C472.371 487.661 471.211 476.72 469.456 465.951C467.324 452.91 464.095 440.088 459.894 427.595C451.523 402.609 438.701 379.144 421.913 358.641C420.533 356.886 421.756 355.961 423.198 357.513C441.554 376.934 455.567 400.681 464.048 426.2C468.311 438.959 471.352 452.126 473.045 465.45C474.456 476.438 475.114 487.536 474.613 498.602Z" fill="#5148FF"/>
<path d="M540.214 498.602H500.524C494.05 438.897 495.821 289.217 582.286 303.905C648.624 315.175 541.922 401.418 540.214 498.602Z" fill="url(#paint16_linear)"/>
<path d="M561.924 336.884C556.689 342.747 552.362 349.362 548.553 356.211C544.744 363.046 541.515 370.24 538.819 377.608C536.076 384.959 533.724 392.467 531.796 400.101C529.852 407.719 528.191 415.4 526.858 423.175C524.115 438.677 522.454 454.383 521.419 470.121C520.823 479.604 520.432 489.103 520.338 498.586H517.641C517.281 489.04 517.312 479.479 517.641 469.933C518.253 454.023 519.742 438.113 522.532 422.375C523.896 414.506 525.667 406.7 527.768 399.004C529.837 391.276 532.392 383.69 535.417 376.26C536.859 372.529 538.599 368.908 540.308 365.287C542.173 361.729 543.976 358.171 546.139 354.785C550.324 347.967 555.058 341.43 560.717 335.756C562.41 333.969 563.523 334.972 561.924 336.884Z" fill="#5148FF"/>
<path d="M567.207 498.602H542.001C542.001 498.602 535.354 445.495 563.883 445.543C589.842 445.558 572.505 478.366 567.207 498.602Z" fill="url(#paint17_linear)"/>
<path d="M559.698 458.647C555.952 470.591 554.369 483.1 553.475 495.561C553.428 496.564 553.365 497.599 553.318 498.602H551.124C551.155 497.52 551.218 496.47 551.281 495.404C552.205 482.802 554.306 470.168 558.93 458.349C559.322 457.424 560.012 457.706 559.698 458.647Z" fill="#5148FF"/>
<path d="M429.782 498.602H397.444C397.444 457.142 350.543 416.434 385.907 412.03C398.494 410.462 407.46 416.905 413.856 426.921C429.782 451.797 429.782 498.602 429.782 498.602Z" fill="url(#paint18_linear)"/>
<path d="M417.398 498.602H415.329C414.577 492.316 413.62 486.015 412.429 479.808C410.626 471.108 408.401 462.534 405.454 454.164C404.67 452.079 403.792 450.041 402.977 448.004C402.554 446.985 402.178 445.935 401.707 444.931L400.218 441.969L398.745 438.975C398.243 437.987 397.773 436.984 397.161 436.059L393.682 430.385C392.96 429.225 393.54 428.739 394.356 429.93L398.133 435.479C398.807 436.404 399.325 437.392 399.842 438.379L401.472 441.326L403.087 444.289C403.604 445.276 404.012 446.326 404.482 447.345C405.36 449.414 406.316 451.452 407.147 453.537C410.36 461.923 412.758 470.607 414.592 479.4C415.815 485.749 416.755 492.16 417.398 498.602Z" fill="#5148FF"/>
<path d="M594.09 498.602H570.546C570.546 436.248 594.419 385.492 627.917 386.166C661.431 386.809 596.755 455.151 594.09 498.602Z" fill="url(#paint19_linear)"/>
<path d="M616.427 404.302C612.947 408.44 609.953 412.986 607.179 417.641C606.505 418.801 605.799 419.961 605.125 421.137L603.228 424.726C601.896 427.093 600.83 429.586 599.655 432.031C595.156 441.875 591.66 452.158 588.87 462.613C585.939 474.416 583.979 486.454 582.913 498.586H581.111C581.863 486.282 583.728 474.024 586.722 462.048C589.56 451.483 593.228 441.091 597.993 431.232C599.216 428.786 600.376 426.294 601.771 423.958L603.793 420.385C604.498 419.193 605.235 418.049 605.972 416.905C608.919 412.296 612.101 407.829 615.784 403.753C616.976 402.499 617.54 403.017 616.427 404.302Z" fill="#5148FF"/>
<path d="M147.439 498.602H99.1747C99.1747 472.739 82.1357 447.236 69.4074 425.495C68.9999 424.805 68.5923 424.099 68.1847 423.41C57.2121 404.443 42.9476 386.856 38.7309 364.801C37.5083 358.39 37.2575 351.446 40.2671 345.647C43.4649 339.455 49.9701 335.505 56.7261 333.765C137.093 313.168 153.897 420.494 147.439 498.602Z" fill="url(#paint20_linear)"/>
<path d="M126.685 498.602H124.616C124.443 487.661 123.283 476.72 121.528 465.951C119.396 452.91 116.167 440.088 111.966 427.595C103.595 402.609 90.7728 379.144 73.9846 358.641C72.6052 356.886 73.8278 355.961 75.27 357.513C93.6257 376.934 107.639 400.681 116.12 426.2C120.383 438.959 123.424 452.126 125.117 465.45C126.528 476.438 127.186 487.536 126.685 498.602Z" fill="#5148FF"/>
<path d="M192.286 498.602H152.596C146.122 438.897 147.893 289.217 234.358 303.905C300.696 315.175 193.979 401.418 192.286 498.602Z" fill="url(#paint21_linear)"/>
<path d="M213.98 336.884C208.745 342.747 204.418 349.362 200.609 356.211C196.8 363.046 193.571 370.24 190.875 377.608C188.132 384.959 185.781 392.467 183.852 400.101C181.909 407.719 180.247 415.4 178.915 423.175C176.172 438.677 174.51 454.383 173.475 470.121C172.88 479.604 172.488 489.103 172.394 498.586H169.698C169.337 489.04 169.369 479.479 169.698 469.933C170.309 454.023 171.798 438.113 174.588 422.375C175.952 414.506 177.723 406.7 179.824 399.004C181.893 391.276 184.448 383.69 187.473 376.26C188.916 372.529 190.656 368.908 192.364 365.287C194.23 361.729 196.032 358.171 198.195 354.785C202.381 347.967 207.115 341.43 212.773 335.756C214.482 333.969 215.595 334.972 213.98 336.884Z" fill="#5148FF"/>
<path d="M219.279 498.602H194.073C194.073 498.602 187.426 445.495 215.955 445.543C241.914 445.558 224.577 478.366 219.279 498.602Z" fill="url(#paint22_linear)"/>
<path d="M211.77 458.647C208.024 470.591 206.441 483.1 205.547 495.561C205.5 496.564 205.437 497.599 205.39 498.602H203.196C203.227 497.52 203.29 496.47 203.353 495.404C204.277 482.802 206.378 470.168 211.002 458.349C211.394 457.424 212.084 457.706 211.77 458.647Z" fill="#5148FF"/>
<path d="M94.9424 498.602H62.6043C62.6043 457.142 15.704 416.434 51.0674 412.03C63.6546 410.462 72.6208 416.905 79.0163 426.921C94.9424 451.797 94.9424 498.602 94.9424 498.602Z" fill="url(#paint23_linear)"/>
<path d="M82.5746 498.602H80.5055C79.7531 492.317 78.7969 486.015 77.6056 479.808C75.8029 471.108 73.577 462.534 70.6301 454.164C69.8463 452.079 68.9685 450.041 68.1534 448.004C67.7302 446.985 67.354 445.935 66.8837 444.931L65.3945 441.969L63.9211 438.975C63.4195 437.987 62.9492 436.984 62.3379 436.059L58.858 430.385C58.1369 429.225 58.7169 428.739 59.532 429.93L63.3097 435.479C63.9838 436.404 64.5011 437.392 65.0183 438.379L66.6486 441.326L68.2631 444.289C68.7804 445.276 69.188 446.326 69.6582 447.345C70.536 449.414 71.4922 451.452 72.323 453.537C75.5364 461.923 77.9347 470.607 79.7688 479.4C80.9757 485.749 81.9163 492.16 82.5746 498.602Z" fill="#5148FF"/>
<path d="M246.146 498.602H222.602C222.602 436.248 246.475 385.492 279.973 386.166C313.503 386.809 248.826 455.151 246.146 498.602Z" fill="url(#paint24_linear)"/>
<path d="M268.483 404.302C265.003 408.44 262.009 412.986 259.235 417.641C258.561 418.801 257.855 419.961 257.181 421.137L255.285 424.726C253.952 427.093 252.886 429.586 251.711 432.031C247.212 441.875 243.716 452.158 240.926 462.613C237.995 474.416 236.035 486.454 234.97 498.586H233.167C233.919 486.282 235.785 474.024 238.779 462.048C241.631 451.483 245.284 441.091 250.049 431.232C251.272 428.786 252.432 426.294 253.827 423.958L255.849 420.385C256.554 419.193 257.291 418.049 258.028 416.905C260.975 412.296 264.157 407.829 267.841 403.753C269.032 402.499 269.596 403.017 268.483 404.302Z" fill="#5148FF"/>
<path d="M51.9765 475.685C67.5264 472.723 78.7499 484.401 79.4866 485.137C80.1763 482.739 86.948 460.7 108.94 452.894C122.844 447.941 135.087 451.468 139.303 452.894C136.513 445.37 137.987 437 143.112 431.012C148.646 424.57 157.581 421.952 165.904 424.397C175.309 409.867 192.568 402.343 209.544 405.368C226.301 408.393 239.735 421.09 243.732 437.674C248.811 430.103 257.918 426.278 266.524 428.159C274.22 429.805 280.365 435.683 282.701 443.364C293.187 432.423 309.082 428.316 323.488 432.94C336.326 436.984 346.138 447.33 349.744 460.167C360.058 452.016 373.946 448.944 386.863 453.004C406.175 459.086 418.339 479.588 414.138 500.326C392.976 500.326 371.815 500.326 350.669 500.326H324.287H28.2128C30.5484 487.771 40.126 477.911 51.9765 475.685Z" fill="url(#paint25_linear)"/>
<path d="M270.364 480.999C285.914 478.036 297.138 489.714 297.874 490.451C298.564 488.053 305.336 466.014 327.328 458.208C341.232 453.254 353.474 456.781 357.691 458.208C354.901 450.684 356.374 442.313 361.5 436.326C367.034 429.883 375.968 427.266 384.292 429.711C393.697 415.18 410.956 407.656 427.932 410.682C444.689 413.707 458.122 426.403 462.12 442.987C467.198 435.416 476.306 431.592 484.912 433.473C492.608 435.119 498.753 440.997 501.088 448.677C511.575 437.736 527.47 433.63 541.875 438.254C554.713 442.298 564.526 452.643 568.132 465.481C578.446 457.33 592.334 454.258 605.25 458.317C624.562 464.399 636.726 484.902 632.525 505.64C611.364 505.64 590.202 505.64 569.056 505.64H542.675H246.616C248.952 493.069 258.514 483.225 270.364 480.999Z" fill="url(#paint26_linear)"/>
<path d="M325.933 565.518C444.173 565.518 540.026 548.977 540.026 528.572C540.026 508.168 444.173 491.627 325.933 491.627C207.693 491.627 111.84 508.168 111.84 528.572C111.84 548.977 207.693 565.518 325.933 565.518Z" fill="#E6F3F9"/>
<path d="M631.35 332.307C631.083 332.198 630.833 332.151 630.566 332.151C630.158 332.151 629.72 332.276 629.343 332.527L605.188 348.484L591.597 347.042C586.566 346.509 581.55 348.343 578.054 351.995L575.546 354.613L496.511 397.233C496.511 397.233 478.814 369.284 459.58 338.891L425.988 362.105C437.353 381.511 468.844 432.156 489.975 434.947C491.668 434.884 493.251 434.868 494.771 434.947C525.04 431.498 583.478 368.846 583.478 368.846L605.736 363.939L632.165 335.881C633.262 334.737 632.823 332.872 631.35 332.307Z" fill="#FFC8AF"/>
<path d="M473.108 498.132C464.361 501.345 449.407 505.844 431.694 510.813C413.401 515.954 392.177 521.597 371.768 526.895C357.205 518.509 343.568 510.781 330.808 503.665C360.905 486.908 386.157 473.648 407.413 463.412C446.915 444.383 472.528 435.871 489.583 434.978H490.1C491.558 435.15 493.141 435.15 494.787 434.946C506.528 435.479 513.566 440.291 518.378 448.082C528.097 463.819 509.961 484.526 473.108 498.132Z" fill="#F4B49A"/>
<path d="M490.006 434.962C491.699 434.9 493.282 434.884 494.803 434.962C493.141 435.15 491.574 435.15 490.1 434.978C490.053 434.978 490.037 434.978 490.006 434.962Z" fill="black"/>
<path d="M490.1 434.978C490.022 434.978 489.928 434.978 489.849 434.978C489.912 434.962 489.959 434.962 490.006 434.962C490.037 434.978 490.053 434.978 490.1 434.978Z" fill="black"/>
<path d="M492.765 390.195L459.173 413.409L398.901 341.838C401.613 321.837 403.635 302.666 402.397 285.11C400.218 254.544 378.508 241.691 361.688 236.299C361.688 236.299 395.343 242.506 412.131 263.981C413.166 265.282 414.138 266.645 415.016 268.072C422.461 280.063 441.695 310.551 492.765 390.195Z" fill="url(#paint27_linear)"/>
<path d="M416.693 523.682C399.419 524.544 377.834 531.3 377.834 531.3C377.834 531.3 381 533.024 383.132 536.002L376.831 537.162L366.751 546.426C370.075 552.508 381.032 555.518 399.732 555.518C414.012 555.518 429.531 553.01 433.779 543.056C438.967 530.861 433.967 522.804 416.693 523.682Z" fill="url(#paint28_linear)"/>
<path d="M244.908 523.682C262.182 524.544 283.767 531.3 283.767 531.3C283.767 531.3 280.6 533.024 278.468 536.002L284.77 537.162L294.849 546.426C291.526 552.508 280.569 555.518 261.868 555.518C247.588 555.518 232.07 553.01 227.822 543.056C222.633 530.861 227.649 522.804 244.908 523.682Z" fill="url(#paint29_linear)"/>
<path d="M414.686 225.608C414.78 226.376 414.749 227.223 414.592 228.179C413.965 231.957 412.649 234.778 413.997 238.556C414.922 241.142 416.254 243.603 416.724 246.315C417.257 249.387 416.066 251.989 415.172 254.811C414.843 255.83 411.802 263.604 412.131 264.012C395.343 242.522 361.688 236.33 361.688 236.33C359.071 235.499 356.563 234.825 354.274 234.324C346.922 232.662 341.734 232.474 341.734 232.474V221.376C353.396 214.213 361.688 196.484 361.688 179.963C361.688 170.543 358.992 163.097 354.493 157.721C347.643 153.457 338.348 156.67 334.774 161.42C330.62 166.984 329.021 175.919 310.932 175.559C303.721 175.402 300.727 181.687 300.79 189.384C303.188 202.817 310.415 215.592 319.882 221.376V232.474C319.882 232.474 314.694 232.662 307.342 234.324C305.054 234.825 302.546 235.499 299.928 236.33C299.928 236.33 262.041 243.305 246.601 268.119C245.315 270.188 243.654 272.821 241.726 275.909C242.995 273.871 237.916 265.83 237.039 263.573C236.177 261.378 234.703 259.215 234.06 256.927C231.333 247.208 241.036 238.195 243.998 229.449C245.801 224.151 242.744 217.097 246.726 212.504C249.359 209.463 253.607 207.849 256.507 205.012C259.689 201.892 261.853 197.691 262.636 193.303C263.42 188.976 262.683 184.258 264.69 180.339C266.79 176.217 271.336 174.054 274.706 170.887C281.509 164.476 280.569 156.921 280.929 148.504C281.792 128.847 296.558 114.756 314.412 108.956C325.306 105.413 337.862 104.207 347.706 111.26C348.788 112.044 349.697 113.549 350.794 114.176C351.954 114.818 352.973 114.129 354.509 113.972C365.372 112.812 373.413 124.553 376.235 133.597C379.636 144.507 375.483 156.811 385.405 164.461C391.8 169.398 386.863 175.684 389.731 181.891C392.49 187.863 402.899 185.794 406.002 193.083C409.247 200.717 402.491 209.714 408.354 216.705C411.097 219.918 414.263 221.768 414.686 225.608Z" fill="url(#paint30_linear)"/>
<path d="M402.397 285.126C403.651 302.682 401.613 321.836 398.901 341.853C394.167 377.2 387.364 415.227 393.164 451.75C374.197 455.637 353.819 458.631 330.792 458.631C307.765 458.631 287.403 455.621 268.436 451.75C274.252 415.227 267.449 377.216 262.699 341.853C259.987 321.852 257.965 302.682 259.203 285.126C261.382 254.56 283.093 241.706 299.912 236.314C302.53 235.483 305.038 234.809 307.327 234.308C307.656 240.735 310.603 255.782 330.777 255.798H330.808C350.982 255.782 353.929 240.75 354.258 234.308C356.547 234.809 359.055 235.483 361.673 236.314C378.508 241.691 400.202 254.544 402.397 285.126Z" fill="url(#paint31_linear)"/>
<path d="M393.164 451.734C427.289 444.775 456.947 435.04 489.583 434.978C463.342 436.357 416.897 455.747 330.808 503.665C244.657 455.716 198.242 436.341 171.971 434.978C204.638 435.009 234.311 444.759 268.436 451.734C287.403 455.622 307.765 458.615 330.792 458.615C353.819 458.615 374.197 455.606 393.164 451.734Z" fill="url(#paint32_linear)"/>
<path d="M385.515 542.194C384.449 546.128 381.329 549.248 373.962 548.041C373.131 547.899 372.692 547.774 372.692 547.774C372.692 547.774 355.214 543.51 330.792 537.35C318.44 534.215 304.348 530.626 289.849 526.879C269.439 521.581 248.184 515.938 229.906 510.797C212.178 505.859 197.224 501.345 188.461 498.116C151.609 484.51 133.488 463.804 143.207 448.066C148.019 440.276 155.073 435.464 166.798 434.931C168.444 435.134 169.996 435.134 171.469 434.962H171.971C189.057 435.824 214.654 444.351 254.187 463.396C275.427 473.632 300.696 486.877 330.808 503.649C343.552 510.75 357.205 518.493 371.768 526.879C374.323 528.353 376.909 529.842 379.527 531.362C379.527 531.378 387.333 535.595 385.515 542.194Z" fill="#FFC8AF"/>
<path d="M354.478 157.705C358.977 163.081 361.673 170.527 361.673 179.947C361.673 196.469 353.38 214.213 341.718 221.36C338.332 223.461 334.633 224.652 330.777 224.652C326.936 224.652 323.253 223.461 319.851 221.36C310.399 215.576 303.157 202.801 300.759 189.368V189.352C300.696 181.672 303.69 175.386 310.901 175.543C328.99 175.919 330.589 166.969 334.743 161.404C338.332 156.639 347.643 153.426 354.478 157.705Z" fill="#FFC8AF"/>
<path d="M354.258 234.292C353.945 240.735 350.982 255.767 330.808 255.783H330.792C310.618 255.767 307.656 240.735 307.342 234.292C314.694 232.647 319.867 232.443 319.867 232.443V221.361C323.253 223.477 326.936 224.652 330.792 224.652C334.664 224.652 338.348 223.461 341.734 221.361V232.443C341.734 232.443 346.907 232.647 354.258 234.292Z" fill="#FFC8AF"/>
<path d="M330.792 537.366C306.386 543.526 288.892 547.79 288.892 547.79C288.892 547.79 288.438 547.884 287.623 548.041C280.255 549.248 277.136 546.128 276.054 542.194C274.267 535.579 282.074 531.378 282.074 531.378C284.691 529.858 287.278 528.369 289.833 526.895C304.348 530.657 318.456 534.247 330.792 537.366Z" fill="#F4B49A"/>
<path d="M202.004 338.891L201.989 338.875C182.787 369.269 165.074 397.233 165.074 397.233L86.0545 354.628V354.613L83.5465 351.995C80.0352 348.343 75.0348 346.509 70.0031 347.042L56.4126 348.484L32.257 332.527C31.8808 332.292 31.4576 332.151 31.0344 332.151C30.7679 332.151 30.5171 332.198 30.2506 332.307C28.7771 332.872 28.3382 334.737 29.4198 335.897L55.8483 363.955L78.1072 368.861C78.1072 368.861 136.545 431.514 166.813 434.962C168.334 434.884 169.917 434.884 171.594 434.962C192.725 432.219 224.248 381.542 235.612 362.121L202.004 338.891Z" fill="#FFC8AF"/>
<path d="M171.751 434.978C171.673 434.978 171.594 434.978 171.516 434.978C171.532 434.978 171.579 434.978 171.594 434.962C171.626 434.962 171.688 434.962 171.751 434.978Z" fill="black"/>
<path d="M171.594 434.962C171.579 434.978 171.532 434.978 171.516 434.978H171.5C170.043 435.15 168.475 435.15 166.813 434.962C168.334 434.884 169.917 434.884 171.594 434.962Z" fill="black"/>
<path d="M473.108 498.132C464.361 501.345 449.407 505.844 431.694 510.813C430.863 480.67 414.294 467.566 407.413 463.412C446.915 444.383 472.528 435.871 489.583 434.978H490.1C491.558 435.15 493.141 435.15 494.787 434.946C506.528 435.479 513.566 440.291 518.378 448.082C528.097 463.819 509.961 484.526 473.108 498.132Z" fill="url(#paint33_linear)"/>
<path d="M254.187 463.412C247.306 467.55 230.737 480.654 229.906 510.813C212.178 505.875 197.223 501.361 188.461 498.132C151.609 484.526 133.488 463.819 143.207 448.082C148.019 440.291 155.073 435.479 166.798 434.946C168.444 435.15 169.996 435.15 171.469 434.978H171.971C189.057 435.855 214.654 444.367 254.187 463.412Z" fill="url(#paint34_linear)"/>
<path d="M168.851 390.195L202.443 413.409L262.715 341.838C260.003 321.837 257.981 302.666 259.219 285.11C261.398 254.544 283.108 241.691 299.928 236.299C299.928 236.299 266.273 242.506 249.485 263.981C248.45 265.282 247.478 266.645 246.601 268.072C239.155 280.063 219.906 310.551 168.851 390.195Z" fill="url(#paint35_linear)"/>
<path d="M341.734 221.361V225.53C338.348 227.646 334.664 228.822 330.792 228.822C326.936 228.822 323.253 227.631 319.867 225.53V221.361C323.253 223.477 326.936 224.652 330.792 224.652C334.664 224.652 338.348 223.477 341.734 221.361Z" fill="#F4B095"/>
<path d="M227.775 87.6538L229.201 91.3531L232.916 92.7952L229.201 94.2216L227.775 97.9209L226.348 94.2216L222.649 92.7952L226.348 91.3531L227.775 87.6538Z" fill="#A5B7C6"/>
<path d="M376.172 11.9128L377.599 15.6121L381.298 17.0385L377.599 18.4649L376.172 22.1642L374.746 18.4649L371.031 17.0385L374.746 15.6121L376.172 11.9128Z" fill="#A5B7C6"/>
<path d="M255.567 25.7537L256.476 28.1206L258.843 29.0297L256.476 29.9389L255.567 32.3058L254.658 29.9389L252.291 29.0297L254.658 28.1206L255.567 25.7537Z" fill="#A5B7C6"/>
<path d="M471.885 96.9961L472.795 99.363L475.162 100.272L472.795 101.181L471.885 103.548L470.976 101.181L468.609 100.272L470.976 99.363L471.885 96.9961Z" fill="#A5B7C6"/>
<path d="M160.465 77.2458L161.374 79.6128L163.741 80.5219L161.374 81.4467L160.465 83.7979L159.556 81.4467L157.189 80.5219L159.556 79.6128L160.465 77.2458Z" fill="#A5B7C6"/>
<path d="M513.456 45.4885L514.381 47.8554L516.748 48.7803L514.381 49.6894L513.456 52.0563L512.547 49.6894L510.18 48.7803L512.547 47.8554L513.456 45.4885Z" fill="#A5B7C6"/>
<path d="M527.109 538.51C527.109 538.51 589.042 535.328 587.694 518.337C586.769 506.565 555.168 512.255 555.121 512.161C555.121 512.161 598.745 484.792 580.907 470.089C566.689 459.619 537.894 491 537.768 490.921C537.768 490.921 546.641 465.371 533.771 462.816C515.133 459.133 505.65 505.64 505.65 505.64C505.65 505.64 508.064 477.08 493.251 478.93C473.798 481.36 466.681 523.133 466.681 523.133C466.681 523.133 452.276 488.884 438.575 508.571C428.481 523.086 423.543 542.288 425.502 560.095C432.227 579.187 481.118 602.542 494.834 584.924C503.267 574.092 482.388 561.082 482.388 561.082C499.286 568.136 538.411 579.892 549.791 560.298C558.005 546.222 527.109 538.526 527.109 538.51Z" fill="url(#paint36_linear)"/>
<path d="M461.649 569.421C458.138 567.415 454.878 565.126 451.868 562.681C449.532 560.8 447.432 558.715 445.504 556.536C459.627 551.818 473.422 546.144 486.761 539.561C489.912 542.069 493.282 544.435 496.872 546.395C500.822 548.558 505.195 550.455 509.71 551.944C514.224 553.433 519.021 554.53 523.99 555.204C528.959 555.878 534.1 556.176 539.399 555.847C534.148 556.003 529.084 555.533 524.209 554.702C519.35 553.872 514.679 552.618 510.305 551.003C505.932 549.389 501.731 547.367 497.938 545.125C494.693 543.181 491.652 540.924 488.815 538.526C499.113 533.432 509.334 527.601 518.974 521.346C523.191 522.726 527.517 523.901 532.11 524.466C534.461 524.873 536.922 524.967 539.352 525.155C541.828 525.202 544.321 525.265 546.813 525.14C551.766 524.889 556.939 524.309 562.065 523.227C567.191 522.161 572.364 520.704 577.443 518.682C572.332 520.547 567.191 521.817 562.096 522.726C557.002 523.619 551.908 524.027 547.033 524.121C544.587 524.168 542.142 524.027 539.728 523.901C537.361 523.635 534.963 523.462 532.674 522.992C528.645 522.365 524.836 521.237 521.168 519.936C539.806 507.255 556.83 493.476 573.132 477.864C556.438 492.99 539.085 506.283 520.118 518.431C520.338 514.685 520.667 510.923 521.278 507.161C521.968 502.834 522.767 498.492 523.755 494.213C524.742 489.934 525.777 485.639 526.937 481.407C528.081 477.175 529.304 472.974 530.652 468.82C529.147 472.927 527.768 477.096 526.451 481.313C525.134 485.514 523.912 489.808 522.752 494.088C521.592 498.383 520.604 502.74 519.726 507.114C518.88 511.299 518.347 515.515 517.939 519.747C508.127 525.751 497.75 531.284 487.294 536.081C486.636 532.585 486.291 528.949 486.354 525.328C486.432 521.143 486.887 516.816 487.561 512.6C488.235 508.383 489.128 504.135 490.163 499.966C491.182 495.796 492.31 491.658 493.643 487.598C492.153 491.611 490.868 495.734 489.677 499.887C488.485 504.041 487.42 508.274 486.557 512.521C485.695 516.769 485.053 521.143 484.786 525.437C484.535 529.278 484.723 533.197 485.288 537.006C471.948 543.134 458.185 548.354 444.14 552.618C444.36 549.31 444.689 545.987 445.222 542.68C445.88 538.542 446.648 534.372 447.589 530.281C448.529 526.174 449.532 522.067 450.63 518.008C451.727 513.948 452.887 509.904 454.172 505.922C452.73 509.857 451.413 513.869 450.144 517.914C448.874 521.942 447.698 526.049 446.57 530.156C445.441 534.262 444.485 538.432 443.623 542.617C442.886 546.144 442.385 549.718 441.977 553.292C425.487 558.276 408.495 561.709 391.424 564.013C391.753 566.224 391.926 567.336 392.255 569.547C409.514 566.741 426.678 562.775 443.278 557.258C445.504 559.609 447.902 561.819 450.551 563.794C453.749 566.176 457.182 568.355 460.85 570.268C464.502 572.164 468.358 573.889 472.356 575.346C476.368 576.804 480.522 578.074 484.864 579.014C480.616 577.917 476.557 576.506 472.685 574.907C468.86 573.277 465.145 571.428 461.649 569.421Z" fill="white"/>
<path d="M252.463 571.725C251.758 567.979 248.121 565.738 247.729 565.503C250.943 564.703 252.777 561.913 252.322 558.825C251.867 555.643 249.187 552.869 245.77 552.022C248.199 549.593 248.889 546.034 247.667 542.837C246.13 538.808 241.835 535.908 237.054 535.877C240.205 529.027 238.747 520.97 233.904 515.609C227.728 508.775 218.589 509.434 218.04 509.481C218.464 503.9 215.375 498.743 210.516 496.596C206.299 494.73 201.268 495.373 197.756 498.477C198.697 492.16 195.86 485.984 190.812 482.912C184.824 479.275 178.523 481.94 178.115 482.128C177.316 474.259 173.021 467.252 166.61 463.475C159.321 459.18 152.314 461.218 151.217 461.578C150.95 460.794 148.818 454.446 143.081 451.28C138.143 448.552 129.162 449.399 127.045 455.355C123.518 454.556 116.59 456.296 114.082 461.374C111.903 465.763 112.42 472.206 115.493 477.833C108.125 479.353 104.207 487.912 107.012 497.724C109.599 506.8 117.405 514.559 125.18 515.892C124.694 516.503 120.713 521.55 123.55 530.156C125.807 537.006 131.638 543.244 138.175 545.878C137.908 546.661 135.604 553.574 141.169 562.132C145.589 568.92 153.254 573.763 160.277 574.359C161.359 581.24 166.688 588.545 173.93 592.808C181.877 597.464 190.577 597.605 195.531 593.561C197.96 599.564 205.14 604.172 210.908 604C215.658 603.859 218.699 600.614 218.432 596.163C222.351 600.05 228.261 601.68 232.195 600.207C235.44 598.984 236.913 595.896 236.145 592.401C238.92 593.984 242.102 594.376 244.296 593.388C247.212 592.071 250.049 585.927 247.478 581.068C251.052 579.97 253.074 574.907 252.463 571.725Z" fill="url(#paint37_linear)"/>
<path d="M225.047 545.172C224.89 548.918 224.687 552.727 224.279 556.458C224.138 558.339 223.856 560.204 223.636 562.054C223.495 563.23 223.291 564.405 223.103 565.581C212.476 558.982 207.365 555.329 197.662 547.461C198.007 545.956 198.383 544.451 198.681 542.962C199.042 541.112 199.465 539.2 199.794 537.335C200.437 533.635 201.095 529.764 201.597 526.002C202.099 522.24 202.475 518.384 202.741 514.59C203.008 510.797 203.196 506.972 203.07 503.179C203.07 506.972 202.741 510.75 202.334 514.512C201.926 518.274 201.393 522.067 200.75 525.767C200.108 529.45 199.308 533.259 198.509 536.864C198.101 538.683 197.615 540.548 197.176 542.351C196.863 543.62 196.471 544.921 196.111 546.191C187.301 538.934 183.1 535.031 175.153 526.786C175.764 523.87 176.36 520.923 176.861 517.992C177.394 514.857 177.865 511.628 178.272 508.446C178.68 505.264 178.993 502.035 179.26 498.837C179.526 495.64 179.73 492.426 179.746 489.213C179.589 492.411 179.244 495.577 178.852 498.728C178.46 501.878 178.006 505.044 177.441 508.164C176.893 511.283 176.281 514.434 175.592 517.475C175.012 520.061 174.353 522.663 173.664 525.234C163.929 514.951 159.399 509.433 151.154 497.803C152.706 492.881 154.007 487.818 155.057 482.692C156.123 477.457 157.612 466.829 157.612 466.829C157.612 466.829 155.872 477.363 154.665 482.504C153.521 487.41 152.126 492.207 150.511 496.878C141.827 484.495 137.924 477.927 131.121 464.18C135.212 472.958 137.469 477.237 142.36 485.514C138.347 486.344 134.162 486.705 129.883 486.626C125.462 486.564 116.371 485.2 116.371 485.2C116.371 485.2 125.494 486.893 129.977 487.128C134.381 487.348 138.708 487.144 142.893 486.391C150.433 499.057 154.649 505.092 163.898 516.456C161.578 517.224 159.211 517.914 156.766 518.431C153.991 519.026 151.138 519.512 148.238 519.81C142.454 520.422 136.435 520.547 130.274 519.983C136.513 520.876 142.627 521.08 148.552 520.766C151.514 520.61 154.446 520.265 157.314 519.81C159.995 519.371 162.613 518.744 165.183 518.023C172.895 527.35 177.034 531.786 185.796 540.109C180.561 543.667 174.62 546.426 168.318 548.48C161.594 550.674 154.414 552.179 146.875 552.821C154.54 552.508 161.891 551.301 168.82 549.373C175.404 547.539 181.642 544.968 187.223 541.457C196.22 549.875 201.001 553.825 210.986 561.098C208.745 562.869 206.409 564.562 203.933 566.082C200.986 567.901 197.851 569.609 194.606 571.098C188.1 574.061 181.078 576.444 173.523 577.839C181.25 576.741 188.477 574.657 195.217 571.929C198.587 570.565 201.832 568.951 204.904 567.242C207.585 565.753 210.124 564.045 212.57 562.258C232.65 576.397 253.827 586.711 276.666 595.457C277.246 593.702 277.544 592.824 278.124 591.068C259.501 584.406 241.757 576.976 224.828 566.631C224.969 565.252 225.157 563.857 225.251 562.493C225.392 560.612 225.596 558.7 225.643 556.787C225.894 552.978 225.941 549.107 225.941 545.329C225.941 541.536 225.784 537.664 225.533 533.871C225.282 530.077 224.937 526.268 224.279 522.522C224.796 526.268 225 530.062 225.11 533.839C225.188 537.601 225.188 541.426 225.047 545.172Z" fill="white"/>
</g>
<defs>
<linearGradient id="paint0_linear" x1="330.794" y1="-0.000120681" x2="330.794" y2="485.805" gradientUnits="userSpaceOnUse">
<stop stop-color="#FBD15B"/>
<stop offset="0.3708" stop-color="#FF8578"/>
<stop offset="1" stop-color="#4333F1"/>
</linearGradient>
<linearGradient id="paint1_linear" x1="210.687" y1="422.37" x2="210.687" y2="198.005" gradientUnits="userSpaceOnUse">
<stop stop-color="#FBD15B"/>
<stop offset="0.3708" stop-color="#FF8578"/>
<stop offset="1" stop-color="#4333F1"/>
</linearGradient>
<linearGradient id="paint2_linear" x1="429.08" y1="360.216" x2="429.08" y2="200.099" gradientUnits="userSpaceOnUse">
<stop stop-color="#FBD15B"/>
<stop offset="0.3708" stop-color="#FF8578"/>
<stop offset="1" stop-color="#4333F1"/>
</linearGradient>
<linearGradient id="paint3_linear" x1="571.429" y1="296.997" x2="550.132" y2="188.375" gradientUnits="userSpaceOnUse">
<stop stop-color="#FBD15B"/>
<stop offset="0.3708" stop-color="#FF8578"/>
<stop offset="1" stop-color="#4333F1"/>
</linearGradient>
<linearGradient id="paint4_linear" x1="70.0215" y1="321.919" x2="97.0547" y2="255.869" gradientUnits="userSpaceOnUse">
<stop stop-color="#FBD15B"/>
<stop offset="0.3708" stop-color="#FF8578"/>
<stop offset="1" stop-color="#4333F1"/>
</linearGradient>
<linearGradient id="paint5_linear" x1="97.5131" y1="296.025" x2="139.441" y2="193.582" gradientUnits="userSpaceOnUse">
<stop stop-color="#FBD15B"/>
<stop offset="0.3708" stop-color="#FF8578"/>
<stop offset="1" stop-color="#4333F1"/>
</linearGradient>
<linearGradient id="paint6_linear" x1="294.88" y1="460.942" x2="294.88" y2="223.946" gradientUnits="userSpaceOnUse">
<stop stop-color="#FBD15B"/>
<stop offset="0.3708" stop-color="#FF8578"/>
<stop offset="1" stop-color="#4333F1"/>
</linearGradient>
<linearGradient id="paint7_linear" x1="614.585" y1="352.146" x2="586.233" y2="202.383" gradientUnits="userSpaceOnUse">
<stop stop-color="white"/>
<stop offset="1" stop-color="#BEE1F4"/>
</linearGradient>
<linearGradient id="paint8_linear" x1="18.527" y1="339.888" x2="65.4728" y2="231.872" gradientUnits="userSpaceOnUse">
<stop stop-color="white"/>
<stop offset="1" stop-color="#BEE1F4"/>
</linearGradient>
<linearGradient id="paint9_linear" x1="403.839" y1="257.081" x2="448.172" y2="452.074" gradientUnits="userSpaceOnUse">
<stop stop-color="#26E6FF"/>
<stop offset="0.4856" stop-color="#4189FF"/>
<stop offset="0.8345" stop-color="#534CFF"/>
<stop offset="1" stop-color="#5A35FF"/>
</linearGradient>
<linearGradient id="paint10_linear" x1="68.8768" y1="285.208" x2="37.5745" y2="422.888" gradientUnits="userSpaceOnUse">
<stop stop-color="#26E6FF"/>
<stop offset="0.4856" stop-color="#4189FF"/>
<stop offset="0.8345" stop-color="#534CFF"/>
<stop offset="1" stop-color="#5A35FF"/>
</linearGradient>
<linearGradient id="paint11_linear" x1="506.865" y1="310.384" x2="491.69" y2="453.149" gradientUnits="userSpaceOnUse">
<stop stop-color="#26E6FF"/>
<stop offset="0.4856" stop-color="#4189FF"/>
<stop offset="0.8345" stop-color="#534CFF"/>
<stop offset="1" stop-color="#5A35FF"/>
</linearGradient>
<linearGradient id="paint12_linear" x1="139.888" y1="313.497" x2="155.063" y2="456.263" gradientUnits="userSpaceOnUse">
<stop stop-color="#26E6FF"/>
<stop offset="0.4856" stop-color="#4189FF"/>
<stop offset="0.8345" stop-color="#534CFF"/>
<stop offset="1" stop-color="#5A35FF"/>
</linearGradient>
<linearGradient id="paint13_linear" x1="254.879" y1="362.176" x2="270.054" y2="504.942" gradientUnits="userSpaceOnUse">
<stop stop-color="#26E6FF"/>
<stop offset="0.4856" stop-color="#4189FF"/>
<stop offset="0.8345" stop-color="#534CFF"/>
<stop offset="1" stop-color="#5A35FF"/>
</linearGradient>
<linearGradient id="paint14_linear" x1="599.999" y1="300.065" x2="582.145" y2="468.027" gradientUnits="userSpaceOnUse">
<stop stop-color="#26E6FF"/>
<stop offset="0.4856" stop-color="#4189FF"/>
<stop offset="0.8345" stop-color="#534CFF"/>
<stop offset="1" stop-color="#5A35FF"/>
</linearGradient>
<linearGradient id="paint15_linear" x1="441.212" y1="331.192" x2="441.212" y2="498.598" gradientUnits="userSpaceOnUse">
<stop stop-color="#435DF1"/>
<stop offset="0.327" stop-color="#4333F1"/>
<stop offset="1" stop-color="#4C008C"/>
</linearGradient>
<linearGradient id="paint16_linear" x1="551.125" y1="302.896" x2="551.125" y2="498.598" gradientUnits="userSpaceOnUse">
<stop stop-color="#435DF1"/>
<stop offset="0.327" stop-color="#4333F1"/>
<stop offset="1" stop-color="#4C008C"/>
</linearGradient>
<linearGradient id="paint17_linear" x1="559.565" y1="445.534" x2="559.565" y2="498.598" gradientUnits="userSpaceOnUse">
<stop stop-color="#435DF1"/>
<stop offset="0.327" stop-color="#4333F1"/>
<stop offset="1" stop-color="#4C008C"/>
</linearGradient>
<linearGradient id="paint18_linear" x1="401.24" y1="411.795" x2="401.24" y2="498.598" gradientUnits="userSpaceOnUse">
<stop stop-color="#435DF1"/>
<stop offset="0.327" stop-color="#4333F1"/>
<stop offset="1" stop-color="#4C008C"/>
</linearGradient>
<linearGradient id="paint19_linear" x1="604.039" y1="386.155" x2="604.039" y2="498.598" gradientUnits="userSpaceOnUse">
<stop stop-color="#435DF1"/>
<stop offset="0.327" stop-color="#4333F1"/>
<stop offset="1" stop-color="#4C008C"/>
</linearGradient>
<linearGradient id="paint20_linear" x1="93.28" y1="331.192" x2="93.28" y2="498.598" gradientUnits="userSpaceOnUse">
<stop stop-color="#435DF1"/>
<stop offset="0.327" stop-color="#4333F1"/>
<stop offset="1" stop-color="#4C008C"/>
</linearGradient>
<linearGradient id="paint21_linear" x1="203.193" y1="302.896" x2="203.193" y2="498.598" gradientUnits="userSpaceOnUse">
<stop stop-color="#435DF1"/>
<stop offset="0.327" stop-color="#4333F1"/>
<stop offset="1" stop-color="#4C008C"/>
</linearGradient>
<linearGradient id="paint22_linear" x1="211.633" y1="445.534" x2="211.633" y2="498.598" gradientUnits="userSpaceOnUse">
<stop stop-color="#435DF1"/>
<stop offset="0.327" stop-color="#4333F1"/>
<stop offset="1" stop-color="#4C008C"/>
</linearGradient>
<linearGradient id="paint23_linear" x1="66.4065" y1="411.795" x2="66.4065" y2="498.598" gradientUnits="userSpaceOnUse">
<stop stop-color="#435DF1"/>
<stop offset="0.327" stop-color="#4333F1"/>
<stop offset="1" stop-color="#4C008C"/>
</linearGradient>
<linearGradient id="paint24_linear" x1="256.107" y1="386.155" x2="256.107" y2="498.598" gradientUnits="userSpaceOnUse">
<stop stop-color="#435DF1"/>
<stop offset="0.327" stop-color="#4333F1"/>
<stop offset="1" stop-color="#4C008C"/>
</linearGradient>
<linearGradient id="paint25_linear" x1="221.607" y1="500.359" x2="221.607" y2="404.727" gradientUnits="userSpaceOnUse">
<stop stop-color="#F9FBFC"/>
<stop offset="1" stop-color="#BEE1F4"/>
</linearGradient>
<linearGradient id="paint26_linear" x1="440" y1="505.665" x2="440" y2="410.034" gradientUnits="userSpaceOnUse">
<stop stop-color="#F9FBFC"/>
<stop offset="1" stop-color="#BEE1F4"/>
</linearGradient>
<linearGradient id="paint27_linear" x1="427.22" y1="221.956" x2="427.22" y2="362.687" gradientUnits="userSpaceOnUse">
<stop stop-color="#FF697D"/>
<stop offset="1" stop-color="#DE2276"/>
</linearGradient>
<linearGradient id="paint28_linear" x1="401.23" y1="522.012" x2="401.23" y2="564.488" gradientUnits="userSpaceOnUse">
<stop stop-color="#682692"/>
<stop offset="1" stop-color="#291D7A"/>
</linearGradient>
<linearGradient id="paint29_linear" x1="260.377" y1="522.012" x2="260.377" y2="564.488" gradientUnits="userSpaceOnUse">
<stop stop-color="#682692"/>
<stop offset="1" stop-color="#291D7A"/>
</linearGradient>
<linearGradient id="paint30_linear" x1="325.22" y1="106.096" x2="325.22" y2="275.894" gradientUnits="userSpaceOnUse">
<stop stop-color="#682692"/>
<stop offset="0.036" stop-color="#632590"/>
<stop offset="0.2583" stop-color="#4A2286"/>
<stop offset="0.4886" stop-color="#371F7F"/>
<stop offset="0.73" stop-color="#2D1E7B"/>
<stop offset="1" stop-color="#291D7A"/>
</linearGradient>
<linearGradient id="paint31_linear" x1="330.803" y1="214.313" x2="330.803" y2="463.772" gradientUnits="userSpaceOnUse">
<stop stop-color="#FF697D"/>
<stop offset="1" stop-color="#DE2276"/>
</linearGradient>
<linearGradient id="paint32_linear" x1="330.784" y1="399.685" x2="330.784" y2="468.377" gradientUnits="userSpaceOnUse">
<stop stop-color="#682692"/>
<stop offset="1" stop-color="#291D7A"/>
</linearGradient>
<linearGradient id="paint33_linear" x1="464.196" y1="434.952" x2="464.196" y2="510.812" gradientUnits="userSpaceOnUse">
<stop stop-color="#682692"/>
<stop offset="1" stop-color="#291D7A"/>
</linearGradient>
<linearGradient id="paint34_linear" x1="197.409" y1="434.952" x2="197.409" y2="510.812" gradientUnits="userSpaceOnUse">
<stop stop-color="#682692"/>
<stop offset="1" stop-color="#291D7A"/>
</linearGradient>
<linearGradient id="paint35_linear" x1="234.386" y1="221.956" x2="234.386" y2="362.687" gradientUnits="userSpaceOnUse">
<stop stop-color="#FF697D"/>
<stop offset="1" stop-color="#DE2276"/>
</linearGradient>
<linearGradient id="paint36_linear" x1="463.51" y1="591.858" x2="553.275" y2="452.296" gradientUnits="userSpaceOnUse">
<stop stop-color="white"/>
<stop offset="1" stop-color="#BEE1F4"/>
</linearGradient>
<linearGradient id="paint37_linear" x1="179.348" y1="604.004" x2="179.348" y2="449.785" gradientUnits="userSpaceOnUse">
<stop stop-color="white"/>
<stop offset="1" stop-color="#BEE1F4"/>
</linearGradient>
<clipPath id="clip0">
<rect width="653" height="604" fill="white" transform="translate(0.0600586)"/>
</clipPath>
</defs>
</svg>
